solid OpenSCAD_Model
  facet normal -0 0 -1
    outer loop
      vertex 1.92953 64.2245 0
      vertex 1.7999 64 0
      vertex 1.92953 64.9016 0
    endloop
  endfacet
  facet normal 0 0 -1
    outer loop
      vertex 1.7999 5 0
      vertex 1.92953 5.90157 0
      vertex 1.92953 5.22452 0
    endloop
  endfacet
  facet normal -0 0 -1
    outer loop
      vertex 1.92953 5.90157 0
      vertex 0 5 0
      vertex 1.92953 63.0984 0
    endloop
  endfacet
  facet normal 0 0 -1
    outer loop
      vertex 1.92953 5.90157 0
      vertex 1.7999 5 0
      vertex 0 5 0
    endloop
  endfacet
  facet normal 0 0 -1
    outer loop
      vertex 0 64 0
      vertex 1.92953 63.0984 0
      vertex 0 5 0
    endloop
  endfacet
  facet normal 0 0 -1
    outer loop
      vertex 24.25 0 0
      vertex 6.60005 7.77137 0
      vertex 24.25 60 0
    endloop
  endfacet
  facet normal 0 0 -1
    outer loop
      vertex 24.25 60 0
      vertex 7.69209 62.2699 0
      vertex 8.2001 64 0
    endloop
  endfacet
  facet normal 0 0 -1
    outer loop
      vertex 6.60005 7.77137 0
      vertex 7.69209 6.7301 0
      vertex 6.70981 7.58126 0
    endloop
  endfacet
  facet normal 0 0 -1
    outer loop
      vertex 6.32937 7.91091 0
      vertex 24.25 60 0
      vertex 6.60005 7.77137 0
    endloop
  endfacet
  facet normal 0 0 -1
    outer loop
      vertex 24.25 60 0
      vertex 6.60005 61.2286 0
      vertex 7.69209 62.2699 0
    endloop
  endfacet
  facet normal 0 0 -1
    outer loop
      vertex 7.69209 62.2699 0
      vertex 6.60005 61.2286 0
      vertex 6.70981 61.4187 0
    endloop
  endfacet
  facet normal 0 0 -1
    outer loop
      vertex 6.32937 7.91091 0
      vertex 6.60005 7.77137 0
      vertex 6.49041 7.77137 0
    endloop
  endfacet
  facet normal 0 0 -1
    outer loop
      vertex 6.32937 61.0891 0
      vertex 24.25 60 0
      vertex 6.32937 7.91091 0
    endloop
  endfacet
  facet normal 0 0 -1
    outer loop
      vertex 24.25 60 0
      vertex 6.32937 61.0891 0
      vertex 6.60005 61.2286 0
    endloop
  endfacet
  facet normal -0 0 -1
    outer loop
      vertex 6.60005 61.2286 0
      vertex 6.32937 61.0891 0
      vertex 6.49041 61.2286 0
    endloop
  endfacet
  facet normal 0 0 -1
    outer loop
      vertex 4.54458 8.16753 0
      vertex 6.32937 61.0891 0
      vertex 6.32937 7.91091 0
    endloop
  endfacet
  facet normal 0 0 -1
    outer loop
      vertex 4.54458 8.16753 0
      vertex 4.54458 60.8325 0
      vertex 6.32937 61.0891 0
    endloop
  endfacet
  facet normal 0 0 -1
    outer loop
      vertex 3.39995 7.77137 0
      vertex 4.54458 8.16753 0
      vertex 3.67711 7.77137 0
    endloop
  endfacet
  facet normal -0 0 -1
    outer loop
      vertex 4.54458 8.16753 0
      vertex 3.39995 7.77137 0
      vertex 4.54458 60.8325 0
    endloop
  endfacet
  facet normal 0 0 -1
    outer loop
      vertex 3.39995 61.2286 0
      vertex 4.54458 60.8325 0
      vertex 3.39995 7.77137 0
    endloop
  endfacet
  facet normal 0 0 -1
    outer loop
      vertex 4.54458 60.8325 0
      vertex 3.39995 61.2286 0
      vertex 3.67711 61.2286 0
    endloop
  endfacet
  facet normal 0 0 -1
    outer loop
      vertex 2.90438 7.41847 0
      vertex 3.39995 7.77137 0
      vertex 3.3007 7.59947 0
    endloop
  endfacet
  facet normal -0 0 -1
    outer loop
      vertex 3.39995 7.77137 0
      vertex 2.90438 7.41847 0
      vertex 3.39995 61.2286 0
    endloop
  endfacet
  facet normal 0 0 -1
    outer loop
      vertex 2.90438 61.5815 0
      vertex 3.39995 61.2286 0
      vertex 2.90438 7.41847 0
    endloop
  endfacet
  facet normal 0 0 -1
    outer loop
      vertex 3.39995 61.2286 0
      vertex 2.90438 61.5815 0
      vertex 3.3007 61.4005 0
    endloop
  endfacet
  facet normal 0 0 -1
    outer loop
      vertex 1.92953 5.90157 0
      vertex 2.90438 61.5815 0
      vertex 2.90438 7.41847 0
    endloop
  endfacet
  facet normal -0 0 -1
    outer loop
      vertex 2.90438 61.5815 0
      vertex 1.92953 5.90157 0
      vertex 1.92953 63.0984 0
    endloop
  endfacet
  facet normal 0 0 -1
    outer loop
      vertex 7.69209 6.7301 0
      vertex 24.25 0 0
      vertex 8.2001 5 0
    endloop
  endfacet
  facet normal 0 0 -1
    outer loop
      vertex 24.25 0 0
      vertex 7.69209 3.2699 0
      vertex 8.2001 5 0
    endloop
  endfacet
  facet normal 0 0 -1
    outer loop
      vertex 6.60005 2.22863 0
      vertex 7.69209 3.2699 0
      vertex 24.25 0 0
    endloop
  endfacet
  facet normal 0 0 -1
    outer loop
      vertex 7.69209 3.2699 0
      vertex 6.60005 2.22863 0
      vertex 6.70981 2.41874 0
    endloop
  endfacet
  facet normal 0 0 -1
    outer loop
      vertex 5 0 0
      vertex 6.60005 2.22863 0
      vertex 24.25 0 0
    endloop
  endfacet
  facet normal 0 -0 -1
    outer loop
      vertex 6.32937 2.08909 0
      vertex 6.60005 2.22863 0
      vertex 5 0 0
    endloop
  endfacet
  facet normal -0 0 -1
    outer loop
      vertex 6.60005 2.22863 0
      vertex 6.32937 2.08909 0
      vertex 6.49041 2.22863 0
    endloop
  endfacet
  facet normal 0 0 -1
    outer loop
      vertex 5 0 0
      vertex 4.54458 1.83247 0
      vertex 6.32937 2.08909 0
    endloop
  endfacet
  facet normal 0 0 -1
    outer loop
      vertex 3.08658 0.380603 0
      vertex 4.54458 1.83247 0
      vertex 5 0 0
    endloop
  endfacet
  facet normal -0 0 -1
    outer loop
      vertex 4.54458 1.83247 0
      vertex 3.08658 0.380603 0
      vertex 3.67711 2.22863 0
    endloop
  endfacet
  facet normal -0 0 -1
    outer loop
      vertex 3.67711 2.22863 0
      vertex 3.08658 0.380603 0
      vertex 3.39995 2.22863 0
    endloop
  endfacet
  facet normal 0 0 -1
    outer loop
      vertex 1.46447 1.46447 0
      vertex 3.39995 2.22863 0
      vertex 3.08658 0.380603 0
    endloop
  endfacet
  facet normal 0 0 -1
    outer loop
      vertex 3.39995 2.22863 0
      vertex 2.90438 2.58153 0
      vertex 3.3007 2.40053 0
    endloop
  endfacet
  facet normal -0 0 -1
    outer loop
      vertex 3.39995 2.22863 0
      vertex 1.46447 1.46447 0
      vertex 2.90438 2.58153 0
    endloop
  endfacet
  facet normal 0 0 -1
    outer loop
      vertex 1.92953 4.09843 0
      vertex 1.7999 5 0
      vertex 1.92953 4.77548 0
    endloop
  endfacet
  facet normal 0 0 -1
    outer loop
      vertex 0 5 0
      vertex 1.92953 4.09843 0
      vertex 0.380603 3.08658 0
    endloop
  endfacet
  facet normal 0 0 -1
    outer loop
      vertex 2.90438 2.58153 0
      vertex 0.380603 3.08658 0
      vertex 1.92953 4.09843 0
    endloop
  endfacet
  facet normal 0 0 -1
    outer loop
      vertex 0.380603 3.08658 0
      vertex 2.90438 2.58153 0
      vertex 1.46447 1.46447 0
    endloop
  endfacet
  facet normal -0 0 -1
    outer loop
      vertex 50.4295 64.2245 0
      vertex 50.2999 64 0
      vertex 50.4295 64.9016 0
    endloop
  endfacet
  facet normal 0 0 -1
    outer loop
      vertex 50.2999 5 0
      vertex 50.4295 5.90157 0
      vertex 50.4295 5.22452 0
    endloop
  endfacet
  facet normal 0 0 -1
    outer loop
      vertex 50.4295 5.90157 0
      vertex 34.25 60 0
      vertex 50.4295 63.0984 0
    endloop
  endfacet
  facet normal 0 0 -1
    outer loop
      vertex 50.4295 5.90157 0
      vertex 50.2999 5 0
      vertex 34.25 0 0
    endloop
  endfacet
  facet normal 0 -0 -1
    outer loop
      vertex 50.2999 64 0
      vertex 50.4295 63.0984 0
      vertex 34.25 60 0
    endloop
  endfacet
  facet normal 0 0 -1
    outer loop
      vertex 58.5 5 0
      vertex 55.1001 7.77137 0
      vertex 58.5 64 0
    endloop
  endfacet
  facet normal -0 0 -1
    outer loop
      vertex 58.5 64 0
      vertex 56.1921 62.2699 0
      vertex 56.7001 64 0
    endloop
  endfacet
  facet normal 0 0 -1
    outer loop
      vertex 55.1001 7.77137 0
      vertex 56.1921 6.7301 0
      vertex 55.2098 7.58126 0
    endloop
  endfacet
  facet normal 0 0 -1
    outer loop
      vertex 55.1001 61.2286 0
      vertex 58.5 64 0
      vertex 55.1001 7.77137 0
    endloop
  endfacet
  facet normal 0 0 -1
    outer loop
      vertex 58.5 64 0
      vertex 55.1001 61.2286 0
      vertex 56.1921 62.2699 0
    endloop
  endfacet
  facet normal 0 0 -1
    outer loop
      vertex 56.1921 62.2699 0
      vertex 55.1001 61.2286 0
      vertex 55.2098 61.4187 0
    endloop
  endfacet
  facet normal 0 0 -1
    outer loop
      vertex 54.8294 7.91091 0
      vertex 55.1001 7.77137 0
      vertex 54.9904 7.77137 0
    endloop
  endfacet
  facet normal 0 0 -1
    outer loop
      vertex 55.1001 7.77137 0
      vertex 54.8294 7.91091 0
      vertex 55.1001 61.2286 0
    endloop
  endfacet
  facet normal 0 0 -1
    outer loop
      vertex 54.8294 61.0891 0
      vertex 55.1001 61.2286 0
      vertex 54.8294 7.91091 0
    endloop
  endfacet
  facet normal -0 0 -1
    outer loop
      vertex 55.1001 61.2286 0
      vertex 54.8294 61.0891 0
      vertex 54.9904 61.2286 0
    endloop
  endfacet
  facet normal 0 0 -1
    outer loop
      vertex 53.0446 8.16753 0
      vertex 54.8294 61.0891 0
      vertex 54.8294 7.91091 0
    endloop
  endfacet
  facet normal 0 0 -1
    outer loop
      vertex 53.0446 8.16753 0
      vertex 53.0446 60.8325 0
      vertex 54.8294 61.0891 0
    endloop
  endfacet
  facet normal 0 0 -1
    outer loop
      vertex 51.8999 7.77137 0
      vertex 53.0446 8.16753 0
      vertex 52.1771 7.77137 0
    endloop
  endfacet
  facet normal -0 0 -1
    outer loop
      vertex 53.0446 8.16753 0
      vertex 51.8999 7.77137 0
      vertex 53.0446 60.8325 0
    endloop
  endfacet
  facet normal 0 0 -1
    outer loop
      vertex 51.8999 61.2286 0
      vertex 53.0446 60.8325 0
      vertex 51.8999 7.77137 0
    endloop
  endfacet
  facet normal 0 0 -1
    outer loop
      vertex 53.0446 60.8325 0
      vertex 51.8999 61.2286 0
      vertex 52.1771 61.2286 0
    endloop
  endfacet
  facet normal 0 0 -1
    outer loop
      vertex 51.4044 7.41847 0
      vertex 51.8999 7.77137 0
      vertex 51.8007 7.59947 0
    endloop
  endfacet
  facet normal -0 0 -1
    outer loop
      vertex 51.8999 7.77137 0
      vertex 51.4044 7.41847 0
      vertex 51.8999 61.2286 0
    endloop
  endfacet
  facet normal 0 0 -1
    outer loop
      vertex 51.4044 61.5815 0
      vertex 51.8999 61.2286 0
      vertex 51.4044 7.41847 0
    endloop
  endfacet
  facet normal 0 0 -1
    outer loop
      vertex 51.8999 61.2286 0
      vertex 51.4044 61.5815 0
      vertex 51.8007 61.4005 0
    endloop
  endfacet
  facet normal 0 0 -1
    outer loop
      vertex 50.4295 5.90157 0
      vertex 51.4044 61.5815 0
      vertex 51.4044 7.41847 0
    endloop
  endfacet
  facet normal -0 0 -1
    outer loop
      vertex 51.4044 61.5815 0
      vertex 50.4295 5.90157 0
      vertex 50.4295 63.0984 0
    endloop
  endfacet
  facet normal 0 0 -1
    outer loop
      vertex 56.7001 5 0
      vertex 58.5 5 0
      vertex 58.1194 3.08658 0
    endloop
  endfacet
  facet normal 0 0 -1
    outer loop
      vertex 56.1921 6.7301 0
      vertex 58.5 5 0
      vertex 56.7001 5 0
    endloop
  endfacet
  facet normal 0 0 -1
    outer loop
      vertex 56.1921 3.2699 0
      vertex 58.1194 3.08658 0
      vertex 57.0355 1.46447 0
    endloop
  endfacet
  facet normal 0 0 -1
    outer loop
      vertex 55.1001 7.77137 0
      vertex 58.5 5 0
      vertex 56.1921 6.7301 0
    endloop
  endfacet
  facet normal 0 0 -1
    outer loop
      vertex 58.5 64 0
      vertex 56.7001 64 0
      vertex 58.1194 65.9134 0
    endloop
  endfacet
  facet normal 0 0 -1
    outer loop
      vertex 58.1194 3.08658 0
      vertex 56.1921 3.2699 0
      vertex 56.7001 5 0
    endloop
  endfacet
  facet normal 0 0 -1
    outer loop
      vertex 55.1001 2.22863 0
      vertex 57.0355 1.46447 0
      vertex 55.4134 0.380603 0
    endloop
  endfacet
  facet normal 0 0 -1
    outer loop
      vertex 57.0355 1.46447 0
      vertex 55.2098 2.41874 0
      vertex 56.1921 3.2699 0
    endloop
  endfacet
  facet normal 0 0 -1
    outer loop
      vertex 57.0355 1.46447 0
      vertex 55.1001 2.22863 0
      vertex 55.2098 2.41874 0
    endloop
  endfacet
  facet normal 0 0 -1
    outer loop
      vertex 54.8294 2.08909 0
      vertex 55.1001 2.22863 0
      vertex 55.4134 0.380603 0
    endloop
  endfacet
  facet normal -0 0 -1
    outer loop
      vertex 55.1001 2.22863 0
      vertex 54.8294 2.08909 0
      vertex 54.9904 2.22863 0
    endloop
  endfacet
  facet normal 0 0 -1
    outer loop
      vertex 53.5 0 0
      vertex 54.8294 2.08909 0
      vertex 55.4134 0.380603 0
    endloop
  endfacet
  facet normal 0 0 -1
    outer loop
      vertex 53.5 0 0
      vertex 53.0446 1.83247 0
      vertex 54.8294 2.08909 0
    endloop
  endfacet
  facet normal 0 0 -1
    outer loop
      vertex 51.8999 2.22863 0
      vertex 53.0446 1.83247 0
      vertex 53.5 0 0
    endloop
  endfacet
  facet normal 0 0 -1
    outer loop
      vertex 53.0446 1.83247 0
      vertex 51.8999 2.22863 0
      vertex 52.1771 2.22863 0
    endloop
  endfacet
  facet normal 0 0 -1
    outer loop
      vertex 51.8999 2.22863 0
      vertex 51.4044 2.58153 0
      vertex 51.8007 2.40053 0
    endloop
  endfacet
  facet normal 0 0 -1
    outer loop
      vertex 53.5 0 0
      vertex 51.4044 2.58153 0
      vertex 51.8999 2.22863 0
    endloop
  endfacet
  facet normal 0 0 -1
    outer loop
      vertex 50.4295 4.09843 0
      vertex 50.2999 5 0
      vertex 50.4295 4.77548 0
    endloop
  endfacet
  facet normal -0 0 -1
    outer loop
      vertex 50.4295 5.90157 0
      vertex 34.25 0 0
      vertex 34.25 60 0
    endloop
  endfacet
  facet normal -0 0 -1
    outer loop
      vertex 50.4295 4.09843 0
      vertex 34.25 0 0
      vertex 50.2999 5 0
    endloop
  endfacet
  facet normal -0 0 -1
    outer loop
      vertex 51.4044 2.58153 0
      vertex 34.25 0 0
      vertex 50.4295 4.09843 0
    endloop
  endfacet
  facet normal 0 0 -1
    outer loop
      vertex 34.25 0 0
      vertex 51.4044 2.58153 0
      vertex 53.5 0 0
    endloop
  endfacet
  facet normal 0 0 -1
    outer loop
      vertex 56.1921 65.7301 0
      vertex 58.1194 65.9134 0
      vertex 56.7001 64 0
    endloop
  endfacet
  facet normal -0 0 -1
    outer loop
      vertex 58.1194 65.9134 0
      vertex 56.1921 65.7301 0
      vertex 57.0355 67.5355 0
    endloop
  endfacet
  facet normal 0 0 -1
    outer loop
      vertex 55.2098 66.5813 0
      vertex 57.0355 67.5355 0
      vertex 56.1921 65.7301 0
    endloop
  endfacet
  facet normal 0 0 -1
    outer loop
      vertex 55.1001 66.7714 0
      vertex 57.0355 67.5355 0
      vertex 55.2098 66.5813 0
    endloop
  endfacet
  facet normal -0 0 -1
    outer loop
      vertex 57.0355 67.5355 0
      vertex 55.1001 66.7714 0
      vertex 55.4134 68.6194 0
    endloop
  endfacet
  facet normal 0 0 -1
    outer loop
      vertex 54.8294 66.9109 0
      vertex 55.1001 66.7714 0
      vertex 54.9904 66.7714 0
    endloop
  endfacet
  facet normal 0 0 -1
    outer loop
      vertex 55.1001 66.7714 0
      vertex 54.8294 66.9109 0
      vertex 55.4134 68.6194 0
    endloop
  endfacet
  facet normal 0 0 -1
    outer loop
      vertex 54.8294 66.9109 0
      vertex 53.5 69 0
      vertex 55.4134 68.6194 0
    endloop
  endfacet
  facet normal 0 0 -1
    outer loop
      vertex 53.0446 67.1675 0
      vertex 53.5 69 0
      vertex 54.8294 66.9109 0
    endloop
  endfacet
  facet normal 0 0 -1
    outer loop
      vertex 51.8999 66.7714 0
      vertex 53.0446 67.1675 0
      vertex 52.1771 66.7714 0
    endloop
  endfacet
  facet normal -0 0 -1
    outer loop
      vertex 53.0446 67.1675 0
      vertex 51.8999 66.7714 0
      vertex 53.5 69 0
    endloop
  endfacet
  facet normal 0 0 -1
    outer loop
      vertex 51.4044 66.4185 0
      vertex 51.8999 66.7714 0
      vertex 51.8007 66.5995 0
    endloop
  endfacet
  facet normal 0 0 -1
    outer loop
      vertex 51.4044 66.4185 0
      vertex 53.5 69 0
      vertex 51.8999 66.7714 0
    endloop
  endfacet
  facet normal 0 0 -1
    outer loop
      vertex 50.4295 63.0984 0
      vertex 50.2999 64 0
      vertex 50.4295 63.7755 0
    endloop
  endfacet
  facet normal -0 0 -1
    outer loop
      vertex 50.2999 64 0
      vertex 34.25 60 0
      vertex 50.4295 64.9016 0
    endloop
  endfacet
  facet normal 0 0 -1
    outer loop
      vertex 34.25 60 0
      vertex 51.4044 66.4185 0
      vertex 50.4295 64.9016 0
    endloop
  endfacet
  facet normal 0 0 -1
    outer loop
      vertex 34.25 60 0
      vertex 53.5 69 0
      vertex 51.4044 66.4185 0
    endloop
  endfacet
  facet normal 0 0 -1
    outer loop
      vertex 24.25 60 0
      vertex 53.5 69 0
      vertex 34.25 60 0
    endloop
  endfacet
  facet normal 0 0 -1
    outer loop
      vertex 6.60005 7.77137 0
      vertex 24.25 0 0
      vertex 7.69209 6.7301 0
    endloop
  endfacet
  facet normal 0 0 -1
    outer loop
      vertex 7.69209 65.7301 0
      vertex 24.25 60 0
      vertex 8.2001 64 0
    endloop
  endfacet
  facet normal 0 0 -1
    outer loop
      vertex 5 69 0
      vertex 24.25 60 0
      vertex 7.69209 65.7301 0
    endloop
  endfacet
  facet normal 0 0 -1
    outer loop
      vertex 6.60005 66.7714 0
      vertex 7.69209 65.7301 0
      vertex 6.70981 66.5813 0
    endloop
  endfacet
  facet normal 0 0 -1
    outer loop
      vertex 5 69 0
      vertex 7.69209 65.7301 0
      vertex 6.60005 66.7714 0
    endloop
  endfacet
  facet normal 0 0 -1
    outer loop
      vertex 6.32937 66.9109 0
      vertex 6.60005 66.7714 0
      vertex 6.49041 66.7714 0
    endloop
  endfacet
  facet normal 0 0 -1
    outer loop
      vertex 6.60005 66.7714 0
      vertex 6.32937 66.9109 0
      vertex 5 69 0
    endloop
  endfacet
  facet normal 0 0 -1
    outer loop
      vertex 24.25 60 0
      vertex 5 69 0
      vertex 53.5 69 0
    endloop
  endfacet
  facet normal 0 0 -1
    outer loop
      vertex 4.54458 67.1675 0
      vertex 5 69 0
      vertex 6.32937 66.9109 0
    endloop
  endfacet
  facet normal 0 0 -1
    outer loop
      vertex 3.08658 68.6194 0
      vertex 4.54458 67.1675 0
      vertex 3.67711 66.7714 0
    endloop
  endfacet
  facet normal 0 0 -1
    outer loop
      vertex 3.08658 68.6194 0
      vertex 3.67711 66.7714 0
      vertex 3.39995 66.7714 0
    endloop
  endfacet
  facet normal 0 0 -1
    outer loop
      vertex 4.54458 67.1675 0
      vertex 3.08658 68.6194 0
      vertex 5 69 0
    endloop
  endfacet
  facet normal 0 0 -1
    outer loop
      vertex 2.90438 66.4185 0
      vertex 3.39995 66.7714 0
      vertex 3.3007 66.5995 0
    endloop
  endfacet
  facet normal 0 0 -1
    outer loop
      vertex 1.46447 67.5355 0
      vertex 3.39995 66.7714 0
      vertex 2.90438 66.4185 0
    endloop
  endfacet
  facet normal 0 0 -1
    outer loop
      vertex 0.380603 65.9134 0
      vertex 2.90438 66.4185 0
      vertex 1.92953 64.9016 0
    endloop
  endfacet
  facet normal 0 0 -1
    outer loop
      vertex 3.39995 66.7714 0
      vertex 1.46447 67.5355 0
      vertex 3.08658 68.6194 0
    endloop
  endfacet
  facet normal 0 0 -1
    outer loop
      vertex 0 64 0
      vertex 1.92953 64.9016 0
      vertex 1.7999 64 0
    endloop
  endfacet
  facet normal -0 -0 -1
    outer loop
      vertex 1.7999 64 0
      vertex 1.92953 63.0984 0
      vertex 0 64 0
    endloop
  endfacet
  facet normal 0 0 -1
    outer loop
      vertex 1.92953 4.09843 0
      vertex 0 5 0
      vertex 1.7999 5 0
    endloop
  endfacet
  facet normal 0 0 -1
    outer loop
      vertex 1.92953 63.0984 0
      vertex 1.7999 64 0
      vertex 1.92953 63.7755 0
    endloop
  endfacet
  facet normal -0 0 -1
    outer loop
      vertex 1.92953 64.9016 0
      vertex 0 64 0
      vertex 0.380603 65.9134 0
    endloop
  endfacet
  facet normal -0 0 -1
    outer loop
      vertex 2.90438 66.4185 0
      vertex 0.380603 65.9134 0
      vertex 1.46447 67.5355 0
    endloop
  endfacet
  facet normal -0 0 -1
    outer loop
      vertex 56.1921 62.2699 0
      vertex 55.2098 61.4187 0
      vertex 56.7001 64 0
    endloop
  endfacet
  facet normal 0 0 -1
    outer loop
      vertex 56.7001 64 0
      vertex 55.2098 66.5813 0
      vertex 56.1921 65.7301 0
    endloop
  endfacet
  facet normal 0 0 -1
    outer loop
      vertex 54.9904 66.7714 0
      vertex 53.0446 67.1675 0
      vertex 54.8294 66.9109 0
    endloop
  endfacet
  facet normal 0 -0 -1
    outer loop
      vertex 53.0446 67.1675 0
      vertex 54.9904 66.7714 0
      vertex 52.1771 66.7714 0
    endloop
  endfacet
  facet normal 0 0 -1
    outer loop
      vertex 50.4295 63.0984 0
      vertex 51.8007 61.4005 0
      vertex 51.4044 61.5815 0
    endloop
  endfacet
  facet normal 0 0 -1
    outer loop
      vertex 51.8007 61.4005 0
      vertex 50.4295 63.0984 0
      vertex 50.4295 63.7755 0
    endloop
  endfacet
  facet normal 0 0 -1
    outer loop
      vertex 53.0446 60.8325 0
      vertex 54.9904 61.2286 0
      vertex 54.8294 61.0891 0
    endloop
  endfacet
  facet normal -0 0 -1
    outer loop
      vertex 54.9904 61.2286 0
      vertex 53.0446 60.8325 0
      vertex 52.1771 61.2286 0
    endloop
  endfacet
  facet normal 0 0 -1
    outer loop
      vertex 50.4295 64.9016 0
      vertex 51.8007 66.5995 0
      vertex 50.4295 64.2245 0
    endloop
  endfacet
  facet normal 0 0 -1
    outer loop
      vertex 51.8007 66.5995 0
      vertex 50.4295 64.9016 0
      vertex 51.4044 66.4185 0
    endloop
  endfacet
  facet normal -0 0 -1
    outer loop
      vertex 56.1921 3.2699 0
      vertex 55.2098 2.41874 0
      vertex 56.7001 5 0
    endloop
  endfacet
  facet normal 0 0 -1
    outer loop
      vertex 56.7001 5 0
      vertex 55.2098 7.58126 0
      vertex 56.1921 6.7301 0
    endloop
  endfacet
  facet normal 0 0 -1
    outer loop
      vertex 54.9904 7.77137 0
      vertex 53.0446 8.16753 0
      vertex 54.8294 7.91091 0
    endloop
  endfacet
  facet normal 0 -0 -1
    outer loop
      vertex 53.0446 8.16753 0
      vertex 54.9904 7.77137 0
      vertex 52.1771 7.77137 0
    endloop
  endfacet
  facet normal 0 0 -1
    outer loop
      vertex 50.4295 4.09843 0
      vertex 51.8007 2.40053 0
      vertex 51.4044 2.58153 0
    endloop
  endfacet
  facet normal 0 0 -1
    outer loop
      vertex 51.8007 2.40053 0
      vertex 50.4295 4.09843 0
      vertex 50.4295 4.77548 0
    endloop
  endfacet
  facet normal 0 0 -1
    outer loop
      vertex 53.0446 1.83247 0
      vertex 54.9904 2.22863 0
      vertex 54.8294 2.08909 0
    endloop
  endfacet
  facet normal -0 0 -1
    outer loop
      vertex 54.9904 2.22863 0
      vertex 53.0446 1.83247 0
      vertex 52.1771 2.22863 0
    endloop
  endfacet
  facet normal 0 0 -1
    outer loop
      vertex 50.4295 5.90157 0
      vertex 51.8007 7.59947 0
      vertex 50.4295 5.22452 0
    endloop
  endfacet
  facet normal 0 0 -1
    outer loop
      vertex 51.8007 7.59947 0
      vertex 50.4295 5.90157 0
      vertex 51.4044 7.41847 0
    endloop
  endfacet
  facet normal -0 0 -1
    outer loop
      vertex 7.69209 62.2699 0
      vertex 6.70981 61.4187 0
      vertex 8.2001 64 0
    endloop
  endfacet
  facet normal 0 0 -1
    outer loop
      vertex 8.2001 64 0
      vertex 6.70981 66.5813 0
      vertex 7.69209 65.7301 0
    endloop
  endfacet
  facet normal 0 0 -1
    outer loop
      vertex 6.49041 66.7714 0
      vertex 4.54458 67.1675 0
      vertex 6.32937 66.9109 0
    endloop
  endfacet
  facet normal 0 -0 -1
    outer loop
      vertex 4.54458 67.1675 0
      vertex 6.49041 66.7714 0
      vertex 3.67711 66.7714 0
    endloop
  endfacet
  facet normal 0 0 -1
    outer loop
      vertex 1.92953 63.0984 0
      vertex 3.3007 61.4005 0
      vertex 2.90438 61.5815 0
    endloop
  endfacet
  facet normal 0 0 -1
    outer loop
      vertex 3.3007 61.4005 0
      vertex 1.92953 63.0984 0
      vertex 1.92953 63.7755 0
    endloop
  endfacet
  facet normal 0 0 -1
    outer loop
      vertex 4.54458 60.8325 0
      vertex 6.49041 61.2286 0
      vertex 6.32937 61.0891 0
    endloop
  endfacet
  facet normal -0 0 -1
    outer loop
      vertex 6.49041 61.2286 0
      vertex 4.54458 60.8325 0
      vertex 3.67711 61.2286 0
    endloop
  endfacet
  facet normal 0 0 -1
    outer loop
      vertex 1.92953 64.9016 0
      vertex 3.3007 66.5995 0
      vertex 1.92953 64.2245 0
    endloop
  endfacet
  facet normal 0 0 -1
    outer loop
      vertex 3.3007 66.5995 0
      vertex 1.92953 64.9016 0
      vertex 2.90438 66.4185 0
    endloop
  endfacet
  facet normal -0 0 -1
    outer loop
      vertex 7.69209 3.2699 0
      vertex 6.70981 2.41874 0
      vertex 8.2001 5 0
    endloop
  endfacet
  facet normal 0 0 -1
    outer loop
      vertex 8.2001 5 0
      vertex 6.70981 7.58126 0
      vertex 7.69209 6.7301 0
    endloop
  endfacet
  facet normal 0 0 -1
    outer loop
      vertex 6.49041 7.77137 0
      vertex 4.54458 8.16753 0
      vertex 6.32937 7.91091 0
    endloop
  endfacet
  facet normal 0 -0 -1
    outer loop
      vertex 4.54458 8.16753 0
      vertex 6.49041 7.77137 0
      vertex 3.67711 7.77137 0
    endloop
  endfacet
  facet normal 0 0 -1
    outer loop
      vertex 1.92953 4.09843 0
      vertex 3.3007 2.40053 0
      vertex 2.90438 2.58153 0
    endloop
  endfacet
  facet normal 0 0 -1
    outer loop
      vertex 3.3007 2.40053 0
      vertex 1.92953 4.09843 0
      vertex 1.92953 4.77548 0
    endloop
  endfacet
  facet normal 0 0 -1
    outer loop
      vertex 4.54458 1.83247 0
      vertex 6.49041 2.22863 0
      vertex 6.32937 2.08909 0
    endloop
  endfacet
  facet normal -0 0 -1
    outer loop
      vertex 6.49041 2.22863 0
      vertex 4.54458 1.83247 0
      vertex 3.67711 2.22863 0
    endloop
  endfacet
  facet normal 0 0 -1
    outer loop
      vertex 1.92953 5.90157 0
      vertex 3.3007 7.59947 0
      vertex 1.92953 5.22452 0
    endloop
  endfacet
  facet normal 0 0 -1
    outer loop
      vertex 3.3007 7.59947 0
      vertex 1.92953 5.90157 0
      vertex 2.90438 7.41847 0
    endloop
  endfacet
  facet normal 0 0 1
    outer loop
      vertex 5.46047 6.41717 4
      vertex 24.25 60 4
      vertex 5.46047 62.5828 4
    endloop
  endfacet
  facet normal 0 0 1
    outer loop
      vertex 24.25 60 4
      vertex 5.46047 6.41717 4
      vertex 6.4901 5 4
    endloop
  endfacet
  facet normal 0 0 1
    outer loop
      vertex 3.79448 63.1241 4
      vertex 5.46047 6.41717 4
      vertex 5.46047 62.5828 4
    endloop
  endfacet
  facet normal 0 0 1
    outer loop
      vertex 5.46047 6.41717 4
      vertex 3.79448 63.1241 4
      vertex 3.79448 5.87586 4
    endloop
  endfacet
  facet normal -0 0 1
    outer loop
      vertex 53.9605 6.41717 4
      vertex 58.5 5 4
      vertex 53.9605 62.5828 4
    endloop
  endfacet
  facet normal 0 0 1
    outer loop
      vertex 58.5 5 4
      vertex 53.9605 6.41717 4
      vertex 54.9901 5 4
    endloop
  endfacet
  facet normal 0 0 1
    outer loop
      vertex 34.25 60 4
      vertex 53.9605 62.5828 4
      vertex 52.2945 63.1241 4
    endloop
  endfacet
  facet normal 0 0 1
    outer loop
      vertex 53.9605 62.5828 4
      vertex 34.25 60 4
      vertex 53.9605 6.41717 4
    endloop
  endfacet
  facet normal 0 0 1
    outer loop
      vertex 54.9901 64 4
      vertex 58.5 64 4
      vertex 58.1194 65.9134 4
    endloop
  endfacet
  facet normal 0 0 1
    outer loop
      vertex 53.9605 62.5828 4
      vertex 58.5 64 4
      vertex 54.9901 64 4
    endloop
  endfacet
  facet normal 0 0 1
    outer loop
      vertex 54.9901 64 4
      vertex 58.1194 65.9134 4
      vertex 57.0355 67.5355 4
    endloop
  endfacet
  facet normal 0 0 1
    outer loop
      vertex 58.5 64 4
      vertex 53.9605 62.5828 4
      vertex 58.5 5 4
    endloop
  endfacet
  facet normal 0 0 1
    outer loop
      vertex 53.9605 65.4172 4
      vertex 57.0355 67.5355 4
      vertex 55.4134 68.6194 4
    endloop
  endfacet
  facet normal 0 0 1
    outer loop
      vertex 58.5 5 4
      vertex 54.9901 5 4
      vertex 58.1194 3.08658 4
    endloop
  endfacet
  facet normal 0 0 1
    outer loop
      vertex 58.1194 3.08658 4
      vertex 54.9901 5 4
      vertex 57.0355 1.46447 4
    endloop
  endfacet
  facet normal 0 0 1
    outer loop
      vertex 57.0355 67.5355 4
      vertex 53.9605 65.4172 4
      vertex 54.9901 64 4
    endloop
  endfacet
  facet normal 0 0 1
    outer loop
      vertex 53.5 69 4
      vertex 53.9605 65.4172 4
      vertex 55.4134 68.6194 4
    endloop
  endfacet
  facet normal 0 0 1
    outer loop
      vertex 53.5 69 4
      vertex 52.2945 64.8759 4
      vertex 53.9605 65.4172 4
    endloop
  endfacet
  facet normal 0 0 1
    outer loop
      vertex 34.25 60 4
      vertex 52.2945 63.1241 4
      vertex 52.2945 64.8759 4
    endloop
  endfacet
  facet normal 0 0 1
    outer loop
      vertex 53.9605 6.41717 4
      vertex 34.25 60 4
      vertex 52.2945 5.87586 4
    endloop
  endfacet
  facet normal 0 0 1
    outer loop
      vertex 34.25 0 4
      vertex 52.2945 5.87586 4
      vertex 34.25 60 4
    endloop
  endfacet
  facet normal 0 0 1
    outer loop
      vertex 53.5 69 4
      vertex 34.25 60 4
      vertex 52.2945 64.8759 4
    endloop
  endfacet
  facet normal 0 0 1
    outer loop
      vertex 53.5 69 4
      vertex 24.25 60 4
      vertex 34.25 60 4
    endloop
  endfacet
  facet normal -0 0 1
    outer loop
      vertex 5.46047 62.5828 4
      vertex 24.25 60 4
      vertex 6.4901 64 4
    endloop
  endfacet
  facet normal -0 0 1
    outer loop
      vertex 5 69 4
      vertex 24.25 60 4
      vertex 53.5 69 4
    endloop
  endfacet
  facet normal 0 0 1
    outer loop
      vertex 24.25 60 4
      vertex 5 69 4
      vertex 6.4901 64 4
    endloop
  endfacet
  facet normal 0 0 1
    outer loop
      vertex 6.4901 64 4
      vertex 5 69 4
      vertex 5.46047 65.4172 4
    endloop
  endfacet
  facet normal -0 0 1
    outer loop
      vertex 3.08658 68.6194 4
      vertex 5.46047 65.4172 4
      vertex 5 69 4
    endloop
  endfacet
  facet normal -0 0 1
    outer loop
      vertex 0 64 4
      vertex 3.79448 63.1241 4
      vertex 3.79448 64.8759 4
    endloop
  endfacet
  facet normal 0 0 1
    outer loop
      vertex 3.79448 63.1241 4
      vertex 0 64 4
      vertex 3.79448 5.87586 4
    endloop
  endfacet
  facet normal -0 0 1
    outer loop
      vertex 1.46447 67.5355 4
      vertex 3.79448 64.8759 4
      vertex 3.08658 68.6194 4
    endloop
  endfacet
  facet normal 0 0 1
    outer loop
      vertex 5.46047 65.4172 4
      vertex 3.08658 68.6194 4
      vertex 3.79448 64.8759 4
    endloop
  endfacet
  facet normal -0 0 1
    outer loop
      vertex 53.9605 3.58283 4
      vertex 57.0355 1.46447 4
      vertex 54.9901 5 4
    endloop
  endfacet
  facet normal 0 0 1
    outer loop
      vertex 57.0355 1.46447 4
      vertex 53.9605 3.58283 4
      vertex 55.4134 0.380603 4
    endloop
  endfacet
  facet normal 0 0 1
    outer loop
      vertex 53.9605 3.58283 4
      vertex 53.5 0 4
      vertex 55.4134 0.380603 4
    endloop
  endfacet
  facet normal 0 0 1
    outer loop
      vertex 52.2945 4.12414 4
      vertex 53.5 0 4
      vertex 53.9605 3.58283 4
    endloop
  endfacet
  facet normal 0 0 1
    outer loop
      vertex 52.2945 5.87586 4
      vertex 34.25 0 4
      vertex 52.2945 4.12414 4
    endloop
  endfacet
  facet normal 0 0 1
    outer loop
      vertex 52.2945 4.12414 4
      vertex 34.25 0 4
      vertex 53.5 0 4
    endloop
  endfacet
  facet normal 0 0 1
    outer loop
      vertex 24.25 60 4
      vertex 6.4901 5 4
      vertex 24.25 0 4
    endloop
  endfacet
  facet normal 0 0 1
    outer loop
      vertex 5 0 4
      vertex 6.4901 5 4
      vertex 5.46047 3.58283 4
    endloop
  endfacet
  facet normal 0 0 1
    outer loop
      vertex 6.4901 5 4
      vertex 5 0 4
      vertex 24.25 0 4
    endloop
  endfacet
  facet normal 0 0 1
    outer loop
      vertex 3.08658 0.380603 4
      vertex 5.46047 3.58283 4
      vertex 3.79448 4.12414 4
    endloop
  endfacet
  facet normal 0 0 1
    outer loop
      vertex 5.46047 3.58283 4
      vertex 3.08658 0.380603 4
      vertex 5 0 4
    endloop
  endfacet
  facet normal 0 0 1
    outer loop
      vertex 0 5 4
      vertex 3.79448 5.87586 4
      vertex 0 64 4
    endloop
  endfacet
  facet normal -0 0 1
    outer loop
      vertex 0.380603 65.9134 4
      vertex 3.79448 64.8759 4
      vertex 1.46447 67.5355 4
    endloop
  endfacet
  facet normal 0 0 1
    outer loop
      vertex 3.79448 5.87586 4
      vertex 0 5 4
      vertex 3.79448 4.12414 4
    endloop
  endfacet
  facet normal 0 0 1
    outer loop
      vertex 3.79448 64.8759 4
      vertex 0.380603 65.9134 4
      vertex 0 64 4
    endloop
  endfacet
  facet normal 0 -0 1
    outer loop
      vertex 0.380603 3.08658 4
      vertex 3.79448 4.12414 4
      vertex 0 5 4
    endloop
  endfacet
  facet normal 0 0 1
    outer loop
      vertex 3.79448 4.12414 4
      vertex 1.46447 1.46447 4
      vertex 3.08658 0.380603 4
    endloop
  endfacet
  facet normal 0 0 1
    outer loop
      vertex 3.79448 4.12414 4
      vertex 0.380603 3.08658 4
      vertex 1.46447 1.46447 4
    endloop
  endfacet
  facet normal -0.55557 -0.83147 0
    outer loop
      vertex 1.46447 1.46447 0
      vertex 3.08658 0.380603 4
      vertex 1.46447 1.46447 4
    endloop
  endfacet
  facet normal -0.55557 -0.83147 -0
    outer loop
      vertex 3.08658 0.380603 4
      vertex 1.46447 1.46447 0
      vertex 3.08658 0.380603 0
    endloop
  endfacet
  facet normal -0.980785 -0.195091 0
    outer loop
      vertex 0.380603 3.08658 0
      vertex 0 5 4
      vertex 0 5 0
    endloop
  endfacet
  facet normal -0.980785 -0.195091 0
    outer loop
      vertex 0 5 4
      vertex 0.380603 3.08658 0
      vertex 0.380603 3.08658 4
    endloop
  endfacet
  facet normal -0.195091 -0.980785 0
    outer loop
      vertex 3.08658 0.380603 0
      vertex 5 0 4
      vertex 3.08658 0.380603 4
    endloop
  endfacet
  facet normal -0.195091 -0.980785 -0
    outer loop
      vertex 5 0 4
      vertex 3.08658 0.380603 0
      vertex 5 0 0
    endloop
  endfacet
  facet normal -0.83147 -0.55557 0
    outer loop
      vertex 1.46447 1.46447 0
      vertex 0.380603 3.08658 4
      vertex 0.380603 3.08658 0
    endloop
  endfacet
  facet normal -0.83147 -0.55557 0
    outer loop
      vertex 0.380603 3.08658 4
      vertex 1.46447 1.46447 0
      vertex 1.46447 1.46447 4
    endloop
  endfacet
  facet normal -0.980785 0.195091 0
    outer loop
      vertex 0 64 0
      vertex 0.380603 65.9134 4
      vertex 0.380603 65.9134 0
    endloop
  endfacet
  facet normal -0.980785 0.195091 0
    outer loop
      vertex 0.380603 65.9134 4
      vertex 0 64 0
      vertex 0 64 4
    endloop
  endfacet
  facet normal -0.55557 0.83147 0
    outer loop
      vertex 3.08658 68.6194 0
      vertex 1.46447 67.5355 4
      vertex 3.08658 68.6194 4
    endloop
  endfacet
  facet normal -0.55557 0.83147 0
    outer loop
      vertex 1.46447 67.5355 4
      vertex 3.08658 68.6194 0
      vertex 1.46447 67.5355 0
    endloop
  endfacet
  facet normal -0.831471 0.555568 0
    outer loop
      vertex 0.380603 65.9134 0
      vertex 1.46447 67.5355 4
      vertex 1.46447 67.5355 0
    endloop
  endfacet
  facet normal -0.831471 0.555568 0
    outer loop
      vertex 1.46447 67.5355 4
      vertex 0.380603 65.9134 0
      vertex 0.380603 65.9134 4
    endloop
  endfacet
  facet normal -0.195089 0.980786 0
    outer loop
      vertex 5 69 0
      vertex 3.08658 68.6194 4
      vertex 5 69 4
    endloop
  endfacet
  facet normal -0.195089 0.980786 0
    outer loop
      vertex 3.08658 68.6194 4
      vertex 5 69 0
      vertex 3.08658 68.6194 0
    endloop
  endfacet
  facet normal 0.195091 -0.980785 0
    outer loop
      vertex 53.5 0 0
      vertex 55.4134 0.380603 4
      vertex 53.5 0 4
    endloop
  endfacet
  facet normal 0.195091 -0.980785 0
    outer loop
      vertex 55.4134 0.380603 4
      vertex 53.5 0 0
      vertex 55.4134 0.380603 0
    endloop
  endfacet
  facet normal 0.980785 -0.195091 0
    outer loop
      vertex 58.1194 3.08658 4
      vertex 58.5 5 0
      vertex 58.5 5 4
    endloop
  endfacet
  facet normal 0.980785 -0.195091 0
    outer loop
      vertex 58.5 5 0
      vertex 58.1194 3.08658 4
      vertex 58.1194 3.08658 0
    endloop
  endfacet
  facet normal 0.55557 -0.83147 0
    outer loop
      vertex 55.4134 0.380603 0
      vertex 57.0355 1.46447 4
      vertex 55.4134 0.380603 4
    endloop
  endfacet
  facet normal 0.55557 -0.83147 0
    outer loop
      vertex 57.0355 1.46447 4
      vertex 55.4134 0.380603 0
      vertex 57.0355 1.46447 0
    endloop
  endfacet
  facet normal 0.83147 -0.55557 0
    outer loop
      vertex 57.0355 1.46447 4
      vertex 58.1194 3.08658 0
      vertex 58.1194 3.08658 4
    endloop
  endfacet
  facet normal 0.83147 -0.55557 0
    outer loop
      vertex 58.1194 3.08658 0
      vertex 57.0355 1.46447 4
      vertex 57.0355 1.46447 0
    endloop
  endfacet
  facet normal 0.980785 0.195091 0
    outer loop
      vertex 58.5 64 4
      vertex 58.1194 65.9134 0
      vertex 58.1194 65.9134 4
    endloop
  endfacet
  facet normal 0.980785 0.195091 0
    outer loop
      vertex 58.1194 65.9134 0
      vertex 58.5 64 4
      vertex 58.5 64 0
    endloop
  endfacet
  facet normal 0.55557 0.83147 -0
    outer loop
      vertex 57.0355 67.5355 0
      vertex 55.4134 68.6194 4
      vertex 57.0355 67.5355 4
    endloop
  endfacet
  facet normal 0.55557 0.83147 0
    outer loop
      vertex 55.4134 68.6194 4
      vertex 57.0355 67.5355 0
      vertex 55.4134 68.6194 0
    endloop
  endfacet
  facet normal 0.831471 0.555568 0
    outer loop
      vertex 58.1194 65.9134 4
      vertex 57.0355 67.5355 0
      vertex 57.0355 67.5355 4
    endloop
  endfacet
  facet normal 0.831471 0.555568 0
    outer loop
      vertex 57.0355 67.5355 0
      vertex 58.1194 65.9134 4
      vertex 58.1194 65.9134 0
    endloop
  endfacet
  facet normal 0.195089 0.980786 -0
    outer loop
      vertex 55.4134 68.6194 0
      vertex 53.5 69 4
      vertex 55.4134 68.6194 4
    endloop
  endfacet
  facet normal 0.195089 0.980786 0
    outer loop
      vertex 53.5 69 4
      vertex 55.4134 68.6194 0
      vertex 53.5 69 0
    endloop
  endfacet
  facet normal 0 1 -0
    outer loop
      vertex 53.5 69 0
      vertex 5 69 4
      vertex 53.5 69 4
    endloop
  endfacet
  facet normal 0 1 0
    outer loop
      vertex 5 69 4
      vertex 53.5 69 0
      vertex 5 69 0
    endloop
  endfacet
  facet normal 0 -1 0
    outer loop
      vertex 34.25 0 0
      vertex 53.5 0 4
      vertex 34.25 0 4
    endloop
  endfacet
  facet normal 0 -1 -0
    outer loop
      vertex 53.5 0 4
      vertex 34.25 0 0
      vertex 53.5 0 0
    endloop
  endfacet
  facet normal 0 -1 0
    outer loop
      vertex 5 0 0
      vertex 24.25 0 4
      vertex 5 0 4
    endloop
  endfacet
  facet normal 0 -1 -0
    outer loop
      vertex 24.25 0 4
      vertex 5 0 0
      vertex 24.25 0 0
    endloop
  endfacet
  facet normal -1 0 0
    outer loop
      vertex 0 5 0
      vertex 0 64 4
      vertex 0 64 0
    endloop
  endfacet
  facet normal -1 -0 0
    outer loop
      vertex 0 64 4
      vertex 0 5 0
      vertex 0 5 4
    endloop
  endfacet
  facet normal 1 -0 0
    outer loop
      vertex 58.5 5 4
      vertex 58.5 64 0
      vertex 58.5 64 4
    endloop
  endfacet
  facet normal 1 0 0
    outer loop
      vertex 58.5 64 0
      vertex 58.5 5 4
      vertex 58.5 5 0
    endloop
  endfacet
  facet normal -0.809017 -0.587786 0
    outer loop
      vertex 6.4901 5 2.4001
      vertex 5.46047 6.41717 4
      vertex 5.46047 6.41717 2.4001
    endloop
  endfacet
  facet normal -0.809017 -0.587786 0
    outer loop
      vertex 5.46047 6.41717 4
      vertex 6.4901 5 2.4001
      vertex 6.4901 5 4
    endloop
  endfacet
  facet normal 1 -0 0
    outer loop
      vertex 3.79448 4.12414 4
      vertex 3.79448 5.87586 2.4001
      vertex 3.79448 5.87586 4
    endloop
  endfacet
  facet normal 1 0 0
    outer loop
      vertex 3.79448 5.87586 2.4001
      vertex 3.79448 4.12414 4
      vertex 3.79448 4.12414 2.4001
    endloop
  endfacet
  facet normal 0.309017 -0.951056 0
    outer loop
      vertex 3.79448 5.87586 2.4001
      vertex 5.46047 6.41717 4
      vertex 3.79448 5.87586 4
    endloop
  endfacet
  facet normal 0.309017 -0.951056 0
    outer loop
      vertex 5.46047 6.41717 4
      vertex 3.79448 5.87586 2.4001
      vertex 5.46047 6.41717 2.4001
    endloop
  endfacet
  facet normal -0.809017 0.587786 0
    outer loop
      vertex 5.46047 3.58283 2.4001
      vertex 6.4901 5 4
      vertex 6.4901 5 2.4001
    endloop
  endfacet
  facet normal -0.809017 0.587786 0
    outer loop
      vertex 6.4901 5 4
      vertex 5.46047 3.58283 2.4001
      vertex 5.46047 3.58283 4
    endloop
  endfacet
  facet normal 0.309017 0.951056 -0
    outer loop
      vertex 5.46047 3.58283 2.4001
      vertex 3.79448 4.12414 4
      vertex 5.46047 3.58283 4
    endloop
  endfacet
  facet normal 0.309017 0.951056 0
    outer loop
      vertex 3.79448 4.12414 4
      vertex 5.46047 3.58283 2.4001
      vertex 3.79448 4.12414 2.4001
    endloop
  endfacet
  facet normal -0.866026 -0.5 0
    outer loop
      vertex 6.70981 7.58126 0
      vertex 6.60005 7.77137 2.4001
      vertex 6.60005 7.77137 0
    endloop
  endfacet
  facet normal -0.866025 -0.5 -0
    outer loop
      vertex 8.2001 5 2.4001
      vertex 6.70981 7.58126 0
      vertex 8.2001 5 0
    endloop
  endfacet
  facet normal -0.866025 -0.5 3.85937e-08
    outer loop
      vertex 6.70981 7.58126 0
      vertex 8.2001 5 2.4001
      vertex 6.60005 7.77137 2.4001
    endloop
  endfacet
  facet normal 0.866025 -0.5 0
    outer loop
      vertex 3.39995 7.77137 2.4001
      vertex 3.3007 7.59947 0
      vertex 3.39995 7.77137 0
    endloop
  endfacet
  facet normal 0.866025 -0.5 8.38411e-10
    outer loop
      vertex 3.39995 7.77137 2.4001
      vertex 1.92953 5.22452 0
      vertex 3.3007 7.59947 0
    endloop
  endfacet
  facet normal 0.866025 -0.5 4.13669e-08
    outer loop
      vertex 1.7999 5 2.4001
      vertex 1.92953 5.22452 0
      vertex 3.39995 7.77137 2.4001
    endloop
  endfacet
  facet normal 0.866025 -0.5 0
    outer loop
      vertex 1.92953 5.22452 0
      vertex 1.7999 5 2.4001
      vertex 1.7999 5 0
    endloop
  endfacet
  facet normal 0 -1 0
    outer loop
      vertex 3.67711 7.77137 0
      vertex 3.39995 7.77137 2.4001
      vertex 3.39995 7.77137 0
    endloop
  endfacet
  facet normal 0 -1 0
    outer loop
      vertex 3.39995 7.77137 2.4001
      vertex 3.67711 7.77137 0
      vertex 6.60005 7.77137 2.4001
    endloop
  endfacet
  facet normal 0 -1 0
    outer loop
      vertex 6.49041 7.77137 0
      vertex 6.60005 7.77137 2.4001
      vertex 3.67711 7.77137 0
    endloop
  endfacet
  facet normal 0 -1 -0
    outer loop
      vertex 6.60005 7.77137 2.4001
      vertex 6.49041 7.77137 0
      vertex 6.60005 7.77137 0
    endloop
  endfacet
  facet normal 0 0 -1
    outer loop
      vertex 6.4901 5 2.4001
      vertex 8.2001 5 2.4001
      vertex 6.60005 2.22863 2.4001
    endloop
  endfacet
  facet normal 0 0 -1
    outer loop
      vertex 8.2001 5 2.4001
      vertex 6.4901 5 2.4001
      vertex 6.60005 7.77137 2.4001
    endloop
  endfacet
  facet normal 0 0 -1
    outer loop
      vertex 6.60005 2.22863 2.4001
      vertex 5.46047 3.58283 2.4001
      vertex 6.4901 5 2.4001
    endloop
  endfacet
  facet normal 0 0 -1
    outer loop
      vertex 3.39995 2.22863 2.4001
      vertex 5.46047 3.58283 2.4001
      vertex 6.60005 2.22863 2.4001
    endloop
  endfacet
  facet normal 0 0 -1
    outer loop
      vertex 1.7999 5 2.4001
      vertex 3.79448 4.12414 2.4001
      vertex 3.39995 2.22863 2.4001
    endloop
  endfacet
  facet normal -0 0 -1
    outer loop
      vertex 5.46047 3.58283 2.4001
      vertex 3.39995 2.22863 2.4001
      vertex 3.79448 4.12414 2.4001
    endloop
  endfacet
  facet normal 0 0 -1
    outer loop
      vertex 5.46047 6.41717 2.4001
      vertex 6.60005 7.77137 2.4001
      vertex 6.4901 5 2.4001
    endloop
  endfacet
  facet normal 0 0 -1
    outer loop
      vertex 3.39995 7.77137 2.4001
      vertex 5.46047 6.41717 2.4001
      vertex 3.79448 5.87586 2.4001
    endloop
  endfacet
  facet normal 0 0 -1
    outer loop
      vertex 5.46047 6.41717 2.4001
      vertex 3.39995 7.77137 2.4001
      vertex 6.60005 7.77137 2.4001
    endloop
  endfacet
  facet normal 0 0 -1
    outer loop
      vertex 3.79448 4.12414 2.4001
      vertex 1.7999 5 2.4001
      vertex 3.79448 5.87586 2.4001
    endloop
  endfacet
  facet normal -0 0 -1
    outer loop
      vertex 3.79448 5.87586 2.4001
      vertex 1.7999 5 2.4001
      vertex 3.39995 7.77137 2.4001
    endloop
  endfacet
  facet normal -0.866025 0.5 0
    outer loop
      vertex 6.70981 2.41874 0
      vertex 8.2001 5 2.4001
      vertex 8.2001 5 0
    endloop
  endfacet
  facet normal -0.866025 0.5 0
    outer loop
      vertex 6.60005 2.22863 2.4001
      vertex 6.70981 2.41874 0
      vertex 6.60005 2.22863 0
    endloop
  endfacet
  facet normal -0.866025 0.5 -1.10748e-08
    outer loop
      vertex 6.70981 2.41874 0
      vertex 6.60005 2.22863 2.4001
      vertex 8.2001 5 2.4001
    endloop
  endfacet
  facet normal 0 1 0
    outer loop
      vertex 6.49041 2.22863 0
      vertex 6.60005 2.22863 2.4001
      vertex 6.60005 2.22863 0
    endloop
  endfacet
  facet normal 0 1 0
    outer loop
      vertex 3.67711 2.22863 0
      vertex 6.60005 2.22863 2.4001
      vertex 6.49041 2.22863 0
    endloop
  endfacet
  facet normal 0 1 0
    outer loop
      vertex 6.60005 2.22863 2.4001
      vertex 3.67711 2.22863 0
      vertex 3.39995 2.22863 2.4001
    endloop
  endfacet
  facet normal 0 1 0
    outer loop
      vertex 3.39995 2.22863 2.4001
      vertex 3.67711 2.22863 0
      vertex 3.39995 2.22863 0
    endloop
  endfacet
  facet normal 0.866025 0.5 0
    outer loop
      vertex 1.7999 5 2.4001
      vertex 1.92953 4.77548 0
      vertex 1.7999 5 0
    endloop
  endfacet
  facet normal 0.866025 0.5 4.13669e-08
    outer loop
      vertex 3.39995 2.22863 2.4001
      vertex 1.92953 4.77548 0
      vertex 1.7999 5 2.4001
    endloop
  endfacet
  facet normal 0.866025 0.5 8.38411e-10
    outer loop
      vertex 1.92953 4.77548 0
      vertex 3.39995 2.22863 2.4001
      vertex 3.3007 2.40053 0
    endloop
  endfacet
  facet normal 0.866025 0.5 0
    outer loop
      vertex 3.3007 2.40053 0
      vertex 3.39995 2.22863 2.4001
      vertex 3.39995 2.22863 0
    endloop
  endfacet
  facet normal -0.809016 -0.587786 0
    outer loop
      vertex 6.4901 64 2.4001
      vertex 5.46047 65.4172 4
      vertex 5.46047 65.4172 2.4001
    endloop
  endfacet
  facet normal -0.809016 -0.587786 0
    outer loop
      vertex 5.46047 65.4172 4
      vertex 6.4901 64 2.4001
      vertex 6.4901 64 4
    endloop
  endfacet
  facet normal 1 -0 0
    outer loop
      vertex 3.79448 63.1241 4
      vertex 3.79448 64.8759 2.4001
      vertex 3.79448 64.8759 4
    endloop
  endfacet
  facet normal 1 0 0
    outer loop
      vertex 3.79448 64.8759 2.4001
      vertex 3.79448 63.1241 4
      vertex 3.79448 63.1241 2.4001
    endloop
  endfacet
  facet normal 0.309019 -0.951056 0
    outer loop
      vertex 3.79448 64.8759 2.4001
      vertex 5.46047 65.4172 4
      vertex 3.79448 64.8759 4
    endloop
  endfacet
  facet normal 0.309019 -0.951056 0
    outer loop
      vertex 5.46047 65.4172 4
      vertex 3.79448 64.8759 2.4001
      vertex 5.46047 65.4172 2.4001
    endloop
  endfacet
  facet normal -0.809016 0.587786 0
    outer loop
      vertex 5.46047 62.5828 2.4001
      vertex 6.4901 64 4
      vertex 6.4901 64 2.4001
    endloop
  endfacet
  facet normal -0.809016 0.587786 0
    outer loop
      vertex 6.4901 64 4
      vertex 5.46047 62.5828 2.4001
      vertex 5.46047 62.5828 4
    endloop
  endfacet
  facet normal 0.309017 0.951057 -0
    outer loop
      vertex 5.46047 62.5828 2.4001
      vertex 3.79448 63.1241 4
      vertex 5.46047 62.5828 4
    endloop
  endfacet
  facet normal 0.309017 0.951057 0
    outer loop
      vertex 3.79448 63.1241 4
      vertex 5.46047 62.5828 2.4001
      vertex 3.79448 63.1241 2.4001
    endloop
  endfacet
  facet normal -0.866029 -0.499994 0
    outer loop
      vertex 6.70981 66.5813 0
      vertex 6.60005 66.7714 2.4001
      vertex 6.60005 66.7714 0
    endloop
  endfacet
  facet normal -0.866025 -0.5 -0
    outer loop
      vertex 8.2001 64 2.4001
      vertex 6.70981 66.5813 0
      vertex 8.2001 64 0
    endloop
  endfacet
  facet normal -0.866026 -0.5 5.9373e-07
    outer loop
      vertex 6.70981 66.5813 0
      vertex 8.2001 64 2.4001
      vertex 6.60005 66.7714 2.4001
    endloop
  endfacet
  facet normal 0.866025 -0.5 0
    outer loop
      vertex 3.39995 66.7714 2.4001
      vertex 3.3007 66.5995 0
      vertex 3.39995 66.7714 0
    endloop
  endfacet
  facet normal 0.866026 -0.499999 -8.54411e-08
    outer loop
      vertex 3.39995 66.7714 2.4001
      vertex 1.92953 64.2245 0
      vertex 3.3007 66.5995 0
    endloop
  endfacet
  facet normal 0.866026 -0.5 6.85675e-07
    outer loop
      vertex 1.7999 64 2.4001
      vertex 1.92953 64.2245 0
      vertex 3.39995 66.7714 2.4001
    endloop
  endfacet
  facet normal 0.866022 -0.500005 0
    outer loop
      vertex 1.92953 64.2245 0
      vertex 1.7999 64 2.4001
      vertex 1.7999 64 0
    endloop
  endfacet
  facet normal 0 -1 0
    outer loop
      vertex 3.67711 66.7714 0
      vertex 3.39995 66.7714 2.4001
      vertex 3.39995 66.7714 0
    endloop
  endfacet
  facet normal 0 -1 0
    outer loop
      vertex 3.39995 66.7714 2.4001
      vertex 3.67711 66.7714 0
      vertex 6.60005 66.7714 2.4001
    endloop
  endfacet
  facet normal 0 -1 0
    outer loop
      vertex 6.49041 66.7714 0
      vertex 6.60005 66.7714 2.4001
      vertex 3.67711 66.7714 0
    endloop
  endfacet
  facet normal 0 -1 -0
    outer loop
      vertex 6.60005 66.7714 2.4001
      vertex 6.49041 66.7714 0
      vertex 6.60005 66.7714 0
    endloop
  endfacet
  facet normal 0.866026 0.499999 0
    outer loop
      vertex 1.7999 64 2.4001
      vertex 1.92953 63.7755 0
      vertex 1.7999 64 0
    endloop
  endfacet
  facet normal 0.866025 0.5 -1.73403e-07
    outer loop
      vertex 3.39995 61.2286 2.4001
      vertex 1.92953 63.7755 0
      vertex 1.7999 64 2.4001
    endloop
  endfacet
  facet normal 0.866025 0.5 2.95983e-08
    outer loop
      vertex 1.92953 63.7755 0
      vertex 3.39995 61.2286 2.4001
      vertex 3.3007 61.4005 0
    endloop
  endfacet
  facet normal 0.866025 0.5 0
    outer loop
      vertex 3.3007 61.4005 0
      vertex 3.39995 61.2286 2.4001
      vertex 3.39995 61.2286 0
    endloop
  endfacet
  facet normal 0 0 -1
    outer loop
      vertex 6.4901 64 2.4001
      vertex 8.2001 64 2.4001
      vertex 6.60005 61.2286 2.4001
    endloop
  endfacet
  facet normal 0 0 -1
    outer loop
      vertex 8.2001 64 2.4001
      vertex 6.4901 64 2.4001
      vertex 6.60005 66.7714 2.4001
    endloop
  endfacet
  facet normal 0 0 -1
    outer loop
      vertex 6.60005 61.2286 2.4001
      vertex 5.46047 62.5828 2.4001
      vertex 6.4901 64 2.4001
    endloop
  endfacet
  facet normal 0 0 -1
    outer loop
      vertex 3.39995 61.2286 2.4001
      vertex 5.46047 62.5828 2.4001
      vertex 6.60005 61.2286 2.4001
    endloop
  endfacet
  facet normal 0 0 -1
    outer loop
      vertex 1.7999 64 2.4001
      vertex 3.79448 63.1241 2.4001
      vertex 3.39995 61.2286 2.4001
    endloop
  endfacet
  facet normal -0 0 -1
    outer loop
      vertex 5.46047 62.5828 2.4001
      vertex 3.39995 61.2286 2.4001
      vertex 3.79448 63.1241 2.4001
    endloop
  endfacet
  facet normal 0 0 -1
    outer loop
      vertex 5.46047 65.4172 2.4001
      vertex 6.60005 66.7714 2.4001
      vertex 6.4901 64 2.4001
    endloop
  endfacet
  facet normal 0 0 -1
    outer loop
      vertex 3.39995 66.7714 2.4001
      vertex 5.46047 65.4172 2.4001
      vertex 3.79448 64.8759 2.4001
    endloop
  endfacet
  facet normal 0 0 -1
    outer loop
      vertex 5.46047 65.4172 2.4001
      vertex 3.39995 66.7714 2.4001
      vertex 6.60005 66.7714 2.4001
    endloop
  endfacet
  facet normal 0 0 -1
    outer loop
      vertex 3.79448 63.1241 2.4001
      vertex 1.7999 64 2.4001
      vertex 3.79448 64.8759 2.4001
    endloop
  endfacet
  facet normal -0 0 -1
    outer loop
      vertex 3.79448 64.8759 2.4001
      vertex 1.7999 64 2.4001
      vertex 3.39995 66.7714 2.4001
    endloop
  endfacet
  facet normal 0 1 0
    outer loop
      vertex 6.49041 61.2286 0
      vertex 6.60005 61.2286 2.4001
      vertex 6.60005 61.2286 0
    endloop
  endfacet
  facet normal 0 1 0
    outer loop
      vertex 3.67711 61.2286 0
      vertex 6.60005 61.2286 2.4001
      vertex 6.49041 61.2286 0
    endloop
  endfacet
  facet normal 0 1 0
    outer loop
      vertex 6.60005 61.2286 2.4001
      vertex 3.67711 61.2286 0
      vertex 3.39995 61.2286 2.4001
    endloop
  endfacet
  facet normal 0 1 0
    outer loop
      vertex 3.39995 61.2286 2.4001
      vertex 3.67711 61.2286 0
      vertex 3.39995 61.2286 0
    endloop
  endfacet
  facet normal -0.866025 0.5 0
    outer loop
      vertex 6.70981 61.4187 0
      vertex 8.2001 64 2.4001
      vertex 8.2001 64 0
    endloop
  endfacet
  facet normal -0.866024 0.500002 0
    outer loop
      vertex 6.60005 61.2286 2.4001
      vertex 6.70981 61.4187 0
      vertex 6.60005 61.2286 0
    endloop
  endfacet
  facet normal -0.866025 0.5 -1.46452e-07
    outer loop
      vertex 6.70981 61.4187 0
      vertex 6.60005 61.2286 2.4001
      vertex 8.2001 64 2.4001
    endloop
  endfacet
  facet normal -0.809016 -0.587786 0
    outer loop
      vertex 54.9901 5 2.4001
      vertex 53.9605 6.41717 4
      vertex 53.9605 6.41717 2.4001
    endloop
  endfacet
  facet normal -0.809016 -0.587786 0
    outer loop
      vertex 53.9605 6.41717 4
      vertex 54.9901 5 2.4001
      vertex 54.9901 5 4
    endloop
  endfacet
  facet normal 1 -0 0
    outer loop
      vertex 52.2945 4.12414 4
      vertex 52.2945 5.87586 2.4001
      vertex 52.2945 5.87586 4
    endloop
  endfacet
  facet normal 1 0 0
    outer loop
      vertex 52.2945 5.87586 2.4001
      vertex 52.2945 4.12414 4
      vertex 52.2945 4.12414 2.4001
    endloop
  endfacet
  facet normal 0.309017 -0.951056 0
    outer loop
      vertex 52.2945 5.87586 2.4001
      vertex 53.9605 6.41717 4
      vertex 52.2945 5.87586 4
    endloop
  endfacet
  facet normal 0.309017 -0.951056 0
    outer loop
      vertex 53.9605 6.41717 4
      vertex 52.2945 5.87586 2.4001
      vertex 53.9605 6.41717 2.4001
    endloop
  endfacet
  facet normal -0.809016 0.587786 0
    outer loop
      vertex 53.9605 3.58283 2.4001
      vertex 54.9901 5 4
      vertex 54.9901 5 2.4001
    endloop
  endfacet
  facet normal -0.809016 0.587786 0
    outer loop
      vertex 54.9901 5 4
      vertex 53.9605 3.58283 2.4001
      vertex 53.9605 3.58283 4
    endloop
  endfacet
  facet normal 0.309017 0.951056 -0
    outer loop
      vertex 53.9605 3.58283 2.4001
      vertex 52.2945 4.12414 4
      vertex 53.9605 3.58283 4
    endloop
  endfacet
  facet normal 0.309017 0.951056 0
    outer loop
      vertex 52.2945 4.12414 4
      vertex 53.9605 3.58283 2.4001
      vertex 52.2945 4.12414 2.4001
    endloop
  endfacet
  facet normal -0.866028 -0.499995 0
    outer loop
      vertex 55.2098 7.58126 0
      vertex 55.1001 7.77137 2.4001
      vertex 55.1001 7.77137 0
    endloop
  endfacet
  facet normal -0.866025 -0.5 -0
    outer loop
      vertex 56.7001 5 2.4001
      vertex 55.2098 7.58126 0
      vertex 56.7001 5 0
    endloop
  endfacet
  facet normal -0.866026 -0.5 5.07554e-07
    outer loop
      vertex 55.2098 7.58126 0
      vertex 56.7001 5 2.4001
      vertex 55.1001 7.77137 2.4001
    endloop
  endfacet
  facet normal 0.86603 -0.499992 0
    outer loop
      vertex 51.8999 7.77137 2.4001
      vertex 51.8007 7.59947 0
      vertex 51.8999 7.77137 0
    endloop
  endfacet
  facet normal 0.866025 -0.5 7.8132e-07
    outer loop
      vertex 51.8999 7.77137 2.4001
      vertex 50.4295 5.22452 0
      vertex 51.8007 7.59947 0
    endloop
  endfacet
  facet normal 0.866026 -0.5 9.71232e-08
    outer loop
      vertex 50.2999 5 2.4001
      vertex 50.4295 5.22452 0
      vertex 51.8999 7.77137 2.4001
    endloop
  endfacet
  facet normal 0.866025 -0.5 0
    outer loop
      vertex 50.4295 5.22452 0
      vertex 50.2999 5 2.4001
      vertex 50.2999 5 0
    endloop
  endfacet
  facet normal 0 -1 0
    outer loop
      vertex 52.1771 7.77137 0
      vertex 51.8999 7.77137 2.4001
      vertex 51.8999 7.77137 0
    endloop
  endfacet
  facet normal 0 -1 0
    outer loop
      vertex 51.8999 7.77137 2.4001
      vertex 52.1771 7.77137 0
      vertex 55.1001 7.77137 2.4001
    endloop
  endfacet
  facet normal 0 -1 0
    outer loop
      vertex 54.9904 7.77137 0
      vertex 55.1001 7.77137 2.4001
      vertex 52.1771 7.77137 0
    endloop
  endfacet
  facet normal 0 -1 -0
    outer loop
      vertex 55.1001 7.77137 2.4001
      vertex 54.9904 7.77137 0
      vertex 55.1001 7.77137 0
    endloop
  endfacet
  facet normal 0 0 -1
    outer loop
      vertex 54.9901 5 2.4001
      vertex 56.7001 5 2.4001
      vertex 55.1001 2.22863 2.4001
    endloop
  endfacet
  facet normal 0 0 -1
    outer loop
      vertex 56.7001 5 2.4001
      vertex 54.9901 5 2.4001
      vertex 55.1001 7.77137 2.4001
    endloop
  endfacet
  facet normal 0 0 -1
    outer loop
      vertex 55.1001 2.22863 2.4001
      vertex 53.9605 3.58283 2.4001
      vertex 54.9901 5 2.4001
    endloop
  endfacet
  facet normal 0 0 -1
    outer loop
      vertex 51.8999 2.22863 2.4001
      vertex 53.9605 3.58283 2.4001
      vertex 55.1001 2.22863 2.4001
    endloop
  endfacet
  facet normal 0 0 -1
    outer loop
      vertex 50.2999 5 2.4001
      vertex 52.2945 4.12414 2.4001
      vertex 51.8999 2.22863 2.4001
    endloop
  endfacet
  facet normal -0 0 -1
    outer loop
      vertex 53.9605 3.58283 2.4001
      vertex 51.8999 2.22863 2.4001
      vertex 52.2945 4.12414 2.4001
    endloop
  endfacet
  facet normal 0 0 -1
    outer loop
      vertex 53.9605 6.41717 2.4001
      vertex 55.1001 7.77137 2.4001
      vertex 54.9901 5 2.4001
    endloop
  endfacet
  facet normal 0 0 -1
    outer loop
      vertex 51.8999 7.77137 2.4001
      vertex 53.9605 6.41717 2.4001
      vertex 52.2945 5.87586 2.4001
    endloop
  endfacet
  facet normal 0 0 -1
    outer loop
      vertex 53.9605 6.41717 2.4001
      vertex 51.8999 7.77137 2.4001
      vertex 55.1001 7.77137 2.4001
    endloop
  endfacet
  facet normal 0 0 -1
    outer loop
      vertex 52.2945 4.12414 2.4001
      vertex 50.2999 5 2.4001
      vertex 52.2945 5.87586 2.4001
    endloop
  endfacet
  facet normal -0 0 -1
    outer loop
      vertex 52.2945 5.87586 2.4001
      vertex 50.2999 5 2.4001
      vertex 51.8999 7.77137 2.4001
    endloop
  endfacet
  facet normal -0.866025 0.5 0
    outer loop
      vertex 55.2098 2.41874 0
      vertex 56.7001 5 2.4001
      vertex 56.7001 5 0
    endloop
  endfacet
  facet normal -0.866028 0.499995 0
    outer loop
      vertex 55.1001 2.22863 2.4001
      vertex 55.2098 2.41874 0
      vertex 55.1001 2.22863 0
    endloop
  endfacet
  facet normal -0.866026 0.5 4.57885e-07
    outer loop
      vertex 55.2098 2.41874 0
      vertex 55.1001 2.22863 2.4001
      vertex 56.7001 5 2.4001
    endloop
  endfacet
  facet normal 0 1 0
    outer loop
      vertex 54.9904 2.22863 0
      vertex 55.1001 2.22863 2.4001
      vertex 55.1001 2.22863 0
    endloop
  endfacet
  facet normal 0 1 0
    outer loop
      vertex 52.1771 2.22863 0
      vertex 55.1001 2.22863 2.4001
      vertex 54.9904 2.22863 0
    endloop
  endfacet
  facet normal 0 1 0
    outer loop
      vertex 55.1001 2.22863 2.4001
      vertex 52.1771 2.22863 0
      vertex 51.8999 2.22863 2.4001
    endloop
  endfacet
  facet normal 0 1 0
    outer loop
      vertex 51.8999 2.22863 2.4001
      vertex 52.1771 2.22863 0
      vertex 51.8999 2.22863 0
    endloop
  endfacet
  facet normal 0.866025 0.5 0
    outer loop
      vertex 50.2999 5 2.4001
      vertex 50.4295 4.77548 0
      vertex 50.2999 5 0
    endloop
  endfacet
  facet normal 0.866026 0.5 9.71232e-08
    outer loop
      vertex 51.8999 2.22863 2.4001
      vertex 50.4295 4.77548 0
      vertex 50.2999 5 2.4001
    endloop
  endfacet
  facet normal 0.866025 0.5 7.8132e-07
    outer loop
      vertex 50.4295 4.77548 0
      vertex 51.8999 2.22863 2.4001
      vertex 51.8007 2.40053 0
    endloop
  endfacet
  facet normal 0.86603 0.499992 0
    outer loop
      vertex 51.8007 2.40053 0
      vertex 51.8999 2.22863 2.4001
      vertex 51.8999 2.22863 0
    endloop
  endfacet
  facet normal -0.809016 -0.587787 0
    outer loop
      vertex 54.9901 64 2.4001
      vertex 53.9605 65.4172 4
      vertex 53.9605 65.4172 2.4001
    endloop
  endfacet
  facet normal -0.809016 -0.587787 0
    outer loop
      vertex 53.9605 65.4172 4
      vertex 54.9901 64 2.4001
      vertex 54.9901 64 4
    endloop
  endfacet
  facet normal 1 -0 0
    outer loop
      vertex 52.2945 63.1241 4
      vertex 52.2945 64.8759 2.4001
      vertex 52.2945 64.8759 4
    endloop
  endfacet
  facet normal 1 0 0
    outer loop
      vertex 52.2945 64.8759 2.4001
      vertex 52.2945 63.1241 4
      vertex 52.2945 63.1241 2.4001
    endloop
  endfacet
  facet normal 0.309019 -0.951056 0
    outer loop
      vertex 52.2945 64.8759 2.4001
      vertex 53.9605 65.4172 4
      vertex 52.2945 64.8759 4
    endloop
  endfacet
  facet normal 0.309019 -0.951056 0
    outer loop
      vertex 53.9605 65.4172 4
      vertex 52.2945 64.8759 2.4001
      vertex 53.9605 65.4172 2.4001
    endloop
  endfacet
  facet normal -0.809016 0.587787 0
    outer loop
      vertex 53.9605 62.5828 2.4001
      vertex 54.9901 64 4
      vertex 54.9901 64 2.4001
    endloop
  endfacet
  facet normal -0.809016 0.587787 0
    outer loop
      vertex 54.9901 64 4
      vertex 53.9605 62.5828 2.4001
      vertex 53.9605 62.5828 4
    endloop
  endfacet
  facet normal 0.309017 0.951057 -0
    outer loop
      vertex 53.9605 62.5828 2.4001
      vertex 52.2945 63.1241 4
      vertex 53.9605 62.5828 4
    endloop
  endfacet
  facet normal 0.309017 0.951057 0
    outer loop
      vertex 52.2945 63.1241 4
      vertex 53.9605 62.5828 2.4001
      vertex 52.2945 63.1241 2.4001
    endloop
  endfacet
  facet normal -0.866032 -0.499989 0
    outer loop
      vertex 55.2098 66.5813 0
      vertex 55.1001 66.7714 2.4001
      vertex 55.1001 66.7714 0
    endloop
  endfacet
  facet normal -0.866025 -0.5 -0
    outer loop
      vertex 56.7001 64 2.4001
      vertex 55.2098 66.5813 0
      vertex 56.7001 64 0
    endloop
  endfacet
  facet normal -0.866026 -0.499999 1.06269e-06
    outer loop
      vertex 55.2098 66.5813 0
      vertex 56.7001 64 2.4001
      vertex 55.1001 66.7714 2.4001
    endloop
  endfacet
  facet normal 0.86603 -0.499992 0
    outer loop
      vertex 51.8999 66.7714 2.4001
      vertex 51.8007 66.5995 0
      vertex 51.8999 66.7714 0
    endloop
  endfacet
  facet normal 0.866026 -0.499999 6.95041e-07
    outer loop
      vertex 51.8999 66.7714 2.4001
      vertex 50.4295 64.2245 0
      vertex 51.8007 66.5995 0
    endloop
  endfacet
  facet normal 0.866026 -0.499999 7.4143e-07
    outer loop
      vertex 50.2999 64 2.4001
      vertex 50.4295 64.2245 0
      vertex 51.8999 66.7714 2.4001
    endloop
  endfacet
  facet normal 0.866022 -0.500005 0
    outer loop
      vertex 50.4295 64.2245 0
      vertex 50.2999 64 2.4001
      vertex 50.2999 64 0
    endloop
  endfacet
  facet normal 0 -1 0
    outer loop
      vertex 52.1771 66.7714 0
      vertex 51.8999 66.7714 2.4001
      vertex 51.8999 66.7714 0
    endloop
  endfacet
  facet normal 0 -1 0
    outer loop
      vertex 51.8999 66.7714 2.4001
      vertex 52.1771 66.7714 0
      vertex 55.1001 66.7714 2.4001
    endloop
  endfacet
  facet normal 0 -1 0
    outer loop
      vertex 54.9904 66.7714 0
      vertex 55.1001 66.7714 2.4001
      vertex 52.1771 66.7714 0
    endloop
  endfacet
  facet normal 0 -1 -0
    outer loop
      vertex 55.1001 66.7714 2.4001
      vertex 54.9904 66.7714 0
      vertex 55.1001 66.7714 0
    endloop
  endfacet
  facet normal 0 0 -1
    outer loop
      vertex 54.9901 64 2.4001
      vertex 56.7001 64 2.4001
      vertex 55.1001 61.2286 2.4001
    endloop
  endfacet
  facet normal 0 0 -1
    outer loop
      vertex 56.7001 64 2.4001
      vertex 54.9901 64 2.4001
      vertex 55.1001 66.7714 2.4001
    endloop
  endfacet
  facet normal 0 0 -1
    outer loop
      vertex 55.1001 61.2286 2.4001
      vertex 53.9605 62.5828 2.4001
      vertex 54.9901 64 2.4001
    endloop
  endfacet
  facet normal 0 0 -1
    outer loop
      vertex 51.8999 61.2286 2.4001
      vertex 53.9605 62.5828 2.4001
      vertex 55.1001 61.2286 2.4001
    endloop
  endfacet
  facet normal 0 0 -1
    outer loop
      vertex 50.2999 64 2.4001
      vertex 52.2945 63.1241 2.4001
      vertex 51.8999 61.2286 2.4001
    endloop
  endfacet
  facet normal -0 0 -1
    outer loop
      vertex 53.9605 62.5828 2.4001
      vertex 51.8999 61.2286 2.4001
      vertex 52.2945 63.1241 2.4001
    endloop
  endfacet
  facet normal 0 0 -1
    outer loop
      vertex 53.9605 65.4172 2.4001
      vertex 55.1001 66.7714 2.4001
      vertex 54.9901 64 2.4001
    endloop
  endfacet
  facet normal 0 0 -1
    outer loop
      vertex 51.8999 66.7714 2.4001
      vertex 53.9605 65.4172 2.4001
      vertex 52.2945 64.8759 2.4001
    endloop
  endfacet
  facet normal 0 0 -1
    outer loop
      vertex 53.9605 65.4172 2.4001
      vertex 51.8999 66.7714 2.4001
      vertex 55.1001 66.7714 2.4001
    endloop
  endfacet
  facet normal 0 0 -1
    outer loop
      vertex 52.2945 63.1241 2.4001
      vertex 50.2999 64 2.4001
      vertex 52.2945 64.8759 2.4001
    endloop
  endfacet
  facet normal -0 0 -1
    outer loop
      vertex 52.2945 64.8759 2.4001
      vertex 50.2999 64 2.4001
      vertex 51.8999 66.7714 2.4001
    endloop
  endfacet
  facet normal -0.866025 0.5 0
    outer loop
      vertex 55.2098 61.4187 0
      vertex 56.7001 64 2.4001
      vertex 56.7001 64 0
    endloop
  endfacet
  facet normal -0.866027 0.499997 0
    outer loop
      vertex 55.1001 61.2286 2.4001
      vertex 55.2098 61.4187 0
      vertex 55.1001 61.2286 0
    endloop
  endfacet
  facet normal -0.866026 0.5 3.22508e-07
    outer loop
      vertex 55.2098 61.4187 0
      vertex 55.1001 61.2286 2.4001
      vertex 56.7001 64 2.4001
    endloop
  endfacet
  facet normal 0 1 0
    outer loop
      vertex 54.9904 61.2286 0
      vertex 55.1001 61.2286 2.4001
      vertex 55.1001 61.2286 0
    endloop
  endfacet
  facet normal 0 1 0
    outer loop
      vertex 52.1771 61.2286 0
      vertex 55.1001 61.2286 2.4001
      vertex 54.9904 61.2286 0
    endloop
  endfacet
  facet normal 0 1 0
    outer loop
      vertex 55.1001 61.2286 2.4001
      vertex 52.1771 61.2286 0
      vertex 51.8999 61.2286 2.4001
    endloop
  endfacet
  facet normal 0 1 0
    outer loop
      vertex 51.8999 61.2286 2.4001
      vertex 52.1771 61.2286 0
      vertex 51.8999 61.2286 0
    endloop
  endfacet
  facet normal 0.866026 0.499999 0
    outer loop
      vertex 50.2999 64 2.4001
      vertex 50.4295 63.7755 0
      vertex 50.2999 64 0
    endloop
  endfacet
  facet normal 0.866026 0.5 -1.17646e-07
    outer loop
      vertex 51.8999 61.2286 2.4001
      vertex 50.4295 63.7755 0
      vertex 50.2999 64 2.4001
    endloop
  endfacet
  facet normal 0.866025 0.5 8.1008e-07
    outer loop
      vertex 50.4295 63.7755 0
      vertex 51.8999 61.2286 2.4001
      vertex 51.8007 61.4005 0
    endloop
  endfacet
  facet normal 0.86603 0.499992 0
    outer loop
      vertex 51.8007 61.4005 0
      vertex 51.8999 61.2286 2.4001
      vertex 51.8999 61.2286 0
    endloop
  endfacet
  facet normal 1 -0 0
    outer loop
      vertex 24.25 0 4
      vertex 24.25 60 0
      vertex 24.25 60 4
    endloop
  endfacet
  facet normal 1 0 0
    outer loop
      vertex 24.25 60 0
      vertex 24.25 0 4
      vertex 24.25 0 0
    endloop
  endfacet
  facet normal -1 0 0
    outer loop
      vertex 34.25 0 0
      vertex 34.25 60 4
      vertex 34.25 60 0
    endloop
  endfacet
  facet normal -1 -0 0
    outer loop
      vertex 34.25 60 4
      vertex 34.25 0 0
      vertex 34.25 0 4
    endloop
  endfacet
  facet normal 0 -1 0
    outer loop
      vertex 24.25 60 0
      vertex 34.25 60 4
      vertex 24.25 60 4
    endloop
  endfacet
  facet normal 0 -1 -0
    outer loop
      vertex 34.25 60 4
      vertex 24.25 60 0
      vertex 34.25 60 0
    endloop
  endfacet
endsolid OpenSCAD_Model
