solid OpenSCAD_Model
  facet normal -0.195091 -0.980785 0
    outer loop
      vertex -39.4134 -4.6194 -2
      vertex -37.5 -5 2
      vertex -39.4134 -4.6194 2
    endloop
  endfacet
  facet normal -0.195091 -0.980785 -0
    outer loop
      vertex -37.5 -5 2
      vertex -39.4134 -4.6194 -2
      vertex -37.5 -5 -2
    endloop
  endfacet
  facet normal 0 0 -1
    outer loop
      vertex -37.0395 -1.41717 -2
      vertex -32.5 0 -2
      vertex -32.5 -5 -2
    endloop
  endfacet
  facet normal -0 0 -1
    outer loop
      vertex -32.5 0 -2
      vertex -37.0395 -1.41717 -2
      vertex -36.0099 0 -2
    endloop
  endfacet
  facet normal 0 0 -1
    outer loop
      vertex -37.5 -5 -2
      vertex -37.0395 -1.41717 -2
      vertex -32.5 -5 -2
    endloop
  endfacet
  facet normal 0 0 -1
    outer loop
      vertex -39.4134 -4.6194 -2
      vertex -37.0395 -1.41717 -2
      vertex -37.5 -5 -2
    endloop
  endfacet
  facet normal 0 0 -1
    outer loop
      vertex -41.0355 -3.53553 -2
      vertex -38.7055 -0.875858 -2
      vertex -39.4134 -4.6194 -2
    endloop
  endfacet
  facet normal -0 0 -1
    outer loop
      vertex -37.0395 -1.41717 -2
      vertex -39.4134 -4.6194 -2
      vertex -38.7055 -0.875858 -2
    endloop
  endfacet
  facet normal 0 0 -1
    outer loop
      vertex 38.9901 0 -2
      vertex 42.5 0 -2
      vertex 42.1194 -1.91342 -2
    endloop
  endfacet
  facet normal 0 0 -1
    outer loop
      vertex 37.9605 1.41717 -2
      vertex 42.5 0 -2
      vertex 38.9901 0 -2
    endloop
  endfacet
  facet normal 0 0 -1
    outer loop
      vertex 38.9901 0 -2
      vertex 42.1194 -1.91342 -2
      vertex 41.0355 -3.53553 -2
    endloop
  endfacet
  facet normal 0 0 -1
    outer loop
      vertex 42.5 0 -2
      vertex 37.9605 1.41717 -2
      vertex 42.5 10 -2
    endloop
  endfacet
  facet normal 0 0 -1
    outer loop
      vertex 37.9605 -1.41717 -2
      vertex 41.0355 -3.53553 -2
      vertex 39.4134 -4.6194 -2
    endloop
  endfacet
  facet normal 0 0 -1
    outer loop
      vertex 31.0355 3.53553 -2
      vertex 42.5 10 -2
      vertex 37.9605 1.41717 -2
    endloop
  endfacet
  facet normal 0 0 -1
    outer loop
      vertex 42.5 10 -2
      vertex 37.5 15 -2
      vertex 42.1194 11.9134 -2
    endloop
  endfacet
  facet normal 0 0 -1
    outer loop
      vertex 41.0355 -3.53553 -2
      vertex 37.9605 -1.41717 -2
      vertex 38.9901 0 -2
    endloop
  endfacet
  facet normal 0 0 -1
    outer loop
      vertex 37.5 -5 -2
      vertex 37.9605 -1.41717 -2
      vertex 39.4134 -4.6194 -2
    endloop
  endfacet
  facet normal 0 0 -1
    outer loop
      vertex 37.5 -5 -2
      vertex 36.2945 -0.875858 -2
      vertex 37.9605 -1.41717 -2
    endloop
  endfacet
  facet normal 0 0 -1
    outer loop
      vertex 32.5 0 -2
      vertex 36.2945 -0.875858 -2
      vertex 32.5 -5 -2
    endloop
  endfacet
  facet normal 0 0 -1
    outer loop
      vertex 32.5 -5 -2
      vertex 36.2945 -0.875858 -2
      vertex 37.5 -5 -2
    endloop
  endfacet
  facet normal 0 0 -1
    outer loop
      vertex 42.1194 11.9134 -2
      vertex 37.5 15 -2
      vertex 41.0355 13.5355 -2
    endloop
  endfacet
  facet normal 0 0 -1
    outer loop
      vertex 41.0355 13.5355 -2
      vertex 37.5 15 -2
      vertex 39.4134 14.6194 -2
    endloop
  endfacet
  facet normal 0 0 -1
    outer loop
      vertex 31.0355 3.53553 -2
      vertex 37.9605 1.41717 -2
      vertex 36.2945 0.875858 -2
    endloop
  endfacet
  facet normal 0 0 -1
    outer loop
      vertex 36.2945 -0.875858 -2
      vertex 32.5 0 -2
      vertex 36.2945 0.875858 -2
    endloop
  endfacet
  facet normal 0 0 -1
    outer loop
      vertex 32.1194 1.91342 -2
      vertex 36.2945 0.875858 -2
      vertex 32.5 0 -2
    endloop
  endfacet
  facet normal 0 0 -1
    outer loop
      vertex 31.0355 3.53553 -2
      vertex 36.2945 0.875858 -2
      vertex 32.1194 1.91342 -2
    endloop
  endfacet
  facet normal -0 0 -1
    outer loop
      vertex 42.5 10 -2
      vertex 31.0355 3.53553 -2
      vertex 37.5 15 -2
    endloop
  endfacet
  facet normal 0 0 -1
    outer loop
      vertex 29.4134 4.6194 -2
      vertex 37.5 15 -2
      vertex 31.0355 3.53553 -2
    endloop
  endfacet
  facet normal 0 0 -1
    outer loop
      vertex 27.5 5 -2
      vertex 37.5 15 -2
      vertex 29.4134 4.6194 -2
    endloop
  endfacet
  facet normal 0 0 -1
    outer loop
      vertex -27.5 5 -2
      vertex 37.5 15 -2
      vertex 27.5 5 -2
    endloop
  endfacet
  facet normal 0 0 -1
    outer loop
      vertex -36.0099 0 -2
      vertex -32.1194 1.91342 -2
      vertex -32.5 0 -2
    endloop
  endfacet
  facet normal 0 0 -1
    outer loop
      vertex -37.0395 1.41717 -2
      vertex -32.1194 1.91342 -2
      vertex -36.0099 0 -2
    endloop
  endfacet
  facet normal -0 0 -1
    outer loop
      vertex -32.1194 1.91342 -2
      vertex -37.0395 1.41717 -2
      vertex -31.0355 3.53553 -2
    endloop
  endfacet
  facet normal 0 0 -1
    outer loop
      vertex -42.5 10 -2
      vertex -31.0355 3.53553 -2
      vertex -37.0395 1.41717 -2
    endloop
  endfacet
  facet normal 0 0 -1
    outer loop
      vertex -27.5 5 -2
      vertex -37.5 15 -2
      vertex 37.5 15 -2
    endloop
  endfacet
  facet normal 0 0 -1
    outer loop
      vertex -29.4134 4.6194 -2
      vertex -37.5 15 -2
      vertex -27.5 5 -2
    endloop
  endfacet
  facet normal 0 0 -1
    outer loop
      vertex -31.0355 3.53553 -2
      vertex -37.5 15 -2
      vertex -29.4134 4.6194 -2
    endloop
  endfacet
  facet normal 0 0 -1
    outer loop
      vertex -42.5 10 -2
      vertex -37.0395 1.41717 -2
      vertex -38.7055 0.875858 -2
    endloop
  endfacet
  facet normal 0 0 -1
    outer loop
      vertex -42.1194 -1.91342 -2
      vertex -38.7055 -0.875858 -2
      vertex -41.0355 -3.53553 -2
    endloop
  endfacet
  facet normal 0 0 -1
    outer loop
      vertex -42.5 10 -2
      vertex -38.7055 0.875858 -2
      vertex -42.5 0 -2
    endloop
  endfacet
  facet normal 0 0 -1
    outer loop
      vertex -42.5 0 -2
      vertex -38.7055 -0.875858 -2
      vertex -42.1194 -1.91342 -2
    endloop
  endfacet
  facet normal 0 0 -1
    outer loop
      vertex -31.0355 3.53553 -2
      vertex -42.5 10 -2
      vertex -37.5 15 -2
    endloop
  endfacet
  facet normal 0 0 -1
    outer loop
      vertex -38.7055 -0.875858 -2
      vertex -42.5 0 -2
      vertex -38.7055 0.875858 -2
    endloop
  endfacet
  facet normal 0 0 -1
    outer loop
      vertex -37.5 15 -2
      vertex -42.5 10 -2
      vertex -39.4134 14.6194 -2
    endloop
  endfacet
  facet normal 0 0 -1
    outer loop
      vertex -39.4134 14.6194 -2
      vertex -42.5 10 -2
      vertex -41.0355 13.5355 -2
    endloop
  endfacet
  facet normal 0 0 -1
    outer loop
      vertex -41.0355 13.5355 -2
      vertex -42.5 10 -2
      vertex -42.1194 11.9134 -2
    endloop
  endfacet
  facet normal 0 0 1
    outer loop
      vertex 37.5 15 2
      vertex 42.5 10 2
      vertex 42.1194 11.9134 2
    endloop
  endfacet
  facet normal 0 0 1
    outer loop
      vertex 42.5 10 2
      vertex 39.1001 2.77137 2
      vertex 42.5 0 2
    endloop
  endfacet
  facet normal 0 0 1
    outer loop
      vertex 37.5 15 2
      vertex 42.1194 11.9134 2
      vertex 41.0355 13.5355 2
    endloop
  endfacet
  facet normal 0 0 1
    outer loop
      vertex 42.5 0 2
      vertex 40.7001 0 2
      vertex 42.1194 -1.91342 2
    endloop
  endfacet
  facet normal 0 0 1
    outer loop
      vertex 39.1001 -2.77137 2
      vertex 42.1194 -1.91342 2
      vertex 40.7001 0 2
    endloop
  endfacet
  facet normal 0 0 1
    outer loop
      vertex 37.5 15 2
      vertex 41.0355 13.5355 2
      vertex 39.4134 14.6194 2
    endloop
  endfacet
  facet normal 0 0 1
    outer loop
      vertex 42.5 0 2
      vertex 39.1001 2.77137 2
      vertex 40.7001 0 2
    endloop
  endfacet
  facet normal 0 0 1
    outer loop
      vertex 42.5 10 2
      vertex 37.5 15 2
      vertex 35.8999 2.77137 2
    endloop
  endfacet
  facet normal 0 0 1
    outer loop
      vertex 42.5 10 2
      vertex 35.8999 2.77137 2
      vertex 39.1001 2.77137 2
    endloop
  endfacet
  facet normal -0 0 1
    outer loop
      vertex 31.0355 3.53553 2
      vertex 35.8999 2.77137 2
      vertex 37.5 15 2
    endloop
  endfacet
  facet normal 0 0 1
    outer loop
      vertex 35.8999 2.77137 2
      vertex 32.1194 1.91342 2
      vertex 34.2999 0 2
    endloop
  endfacet
  facet normal 0 0 1
    outer loop
      vertex 34.2999 0 2
      vertex 32.1194 1.91342 2
      vertex 32.5 0 2
    endloop
  endfacet
  facet normal 0 0 1
    outer loop
      vertex 35.8999 2.77137 2
      vertex 31.0355 3.53553 2
      vertex 32.1194 1.91342 2
    endloop
  endfacet
  facet normal 0 0 1
    outer loop
      vertex 37.5 15 2
      vertex 29.4134 4.6194 2
      vertex 31.0355 3.53553 2
    endloop
  endfacet
  facet normal 0 0 1
    outer loop
      vertex 37.5 15 2
      vertex 27.5 5 2
      vertex 29.4134 4.6194 2
    endloop
  endfacet
  facet normal 0 0 1
    outer loop
      vertex 37.5 15 2
      vertex -27.5 5 2
      vertex 27.5 5 2
    endloop
  endfacet
  facet normal 0 0 1
    outer loop
      vertex -35.8999 -2.77137 2
      vertex -32.5 0 2
      vertex -34.2999 0 2
    endloop
  endfacet
  facet normal 0 0 1
    outer loop
      vertex -32.1194 1.91342 2
      vertex -34.2999 0 2
      vertex -32.5 0 2
    endloop
  endfacet
  facet normal -0 0 1
    outer loop
      vertex -35.8999 2.77137 2
      vertex -32.1194 1.91342 2
      vertex -31.0355 3.53553 2
    endloop
  endfacet
  facet normal 0 0 1
    outer loop
      vertex -32.1194 1.91342 2
      vertex -35.8999 2.77137 2
      vertex -34.2999 0 2
    endloop
  endfacet
  facet normal 0 0 1
    outer loop
      vertex -37.5 15 2
      vertex -31.0355 3.53553 2
      vertex -29.4134 4.6194 2
    endloop
  endfacet
  facet normal -0 0 1
    outer loop
      vertex -37.5 15 2
      vertex -27.5 5 2
      vertex 37.5 15 2
    endloop
  endfacet
  facet normal 0 0 1
    outer loop
      vertex -37.5 15 2
      vertex -29.4134 4.6194 2
      vertex -27.5 5 2
    endloop
  endfacet
  facet normal 0 0 1
    outer loop
      vertex -31.0355 3.53553 2
      vertex -37.5 15 2
      vertex -35.8999 2.77137 2
    endloop
  endfacet
  facet normal -0 0 1
    outer loop
      vertex -42.5 10 2
      vertex -35.8999 2.77137 2
      vertex -37.5 15 2
    endloop
  endfacet
  facet normal 0 0 1
    outer loop
      vertex -42.5 10 2
      vertex -37.5 15 2
      vertex -39.4134 14.6194 2
    endloop
  endfacet
  facet normal 0 0 1
    outer loop
      vertex -35.8999 2.77137 2
      vertex -42.5 10 2
      vertex -39.1001 2.77137 2
    endloop
  endfacet
  facet normal 0 0 1
    outer loop
      vertex -42.5 10 2
      vertex -39.4134 14.6194 2
      vertex -41.0355 13.5355 2
    endloop
  endfacet
  facet normal 0 0 1
    outer loop
      vertex 42.1194 -1.91342 2
      vertex 39.1001 -2.77137 2
      vertex 41.0355 -3.53553 2
    endloop
  endfacet
  facet normal 0 0 1
    outer loop
      vertex 41.0355 -3.53553 2
      vertex 39.1001 -2.77137 2
      vertex 39.4134 -4.6194 2
    endloop
  endfacet
  facet normal 0 0 1
    outer loop
      vertex 39.1001 -2.77137 2
      vertex 37.5 -5 2
      vertex 39.4134 -4.6194 2
    endloop
  endfacet
  facet normal -0 0 1
    outer loop
      vertex 35.8999 -2.77137 2
      vertex 37.5 -5 2
      vertex 39.1001 -2.77137 2
    endloop
  endfacet
  facet normal -0 0 1
    outer loop
      vertex 32.5 0 2
      vertex 35.8999 -2.77137 2
      vertex 34.2999 0 2
    endloop
  endfacet
  facet normal 0 0 1
    outer loop
      vertex 32.5 -5 2
      vertex 35.8999 -2.77137 2
      vertex 32.5 0 2
    endloop
  endfacet
  facet normal 0 0 1
    outer loop
      vertex 35.8999 -2.77137 2
      vertex 32.5 -5 2
      vertex 37.5 -5 2
    endloop
  endfacet
  facet normal 0 0 1
    outer loop
      vertex -32.5 0 2
      vertex -35.8999 -2.77137 2
      vertex -32.5 -5 2
    endloop
  endfacet
  facet normal 0 0 1
    outer loop
      vertex -35.8999 -2.77137 2
      vertex -37.5 -5 2
      vertex -32.5 -5 2
    endloop
  endfacet
  facet normal -0 0 1
    outer loop
      vertex -39.1001 -2.77137 2
      vertex -37.5 -5 2
      vertex -35.8999 -2.77137 2
    endloop
  endfacet
  facet normal 0 0 1
    outer loop
      vertex -39.1001 -2.77137 2
      vertex -39.4134 -4.6194 2
      vertex -37.5 -5 2
    endloop
  endfacet
  facet normal -0 0 1
    outer loop
      vertex -42.1194 -1.91342 2
      vertex -39.1001 -2.77137 2
      vertex -40.7001 0 2
    endloop
  endfacet
  facet normal 0 0 1
    outer loop
      vertex -39.1001 -2.77137 2
      vertex -41.0355 -3.53553 2
      vertex -39.4134 -4.6194 2
    endloop
  endfacet
  facet normal 0 0 1
    outer loop
      vertex -42.5 0 2
      vertex -39.1001 2.77137 2
      vertex -42.5 10 2
    endloop
  endfacet
  facet normal 0 0 1
    outer loop
      vertex -42.5 10 2
      vertex -41.0355 13.5355 2
      vertex -42.1194 11.9134 2
    endloop
  endfacet
  facet normal 0 0 1
    outer loop
      vertex -39.1001 2.77137 2
      vertex -42.5 0 2
      vertex -40.7001 0 2
    endloop
  endfacet
  facet normal 0 -0 1
    outer loop
      vertex -42.1194 -1.91342 2
      vertex -40.7001 0 2
      vertex -42.5 0 2
    endloop
  endfacet
  facet normal 0 0 1
    outer loop
      vertex -39.1001 -2.77137 2
      vertex -42.1194 -1.91342 2
      vertex -41.0355 -3.53553 2
    endloop
  endfacet
  facet normal -0.55557 -0.83147 0
    outer loop
      vertex -41.0355 -3.53553 -2
      vertex -39.4134 -4.6194 2
      vertex -41.0355 -3.53553 2
    endloop
  endfacet
  facet normal -0.55557 -0.83147 -0
    outer loop
      vertex -39.4134 -4.6194 2
      vertex -41.0355 -3.53553 -2
      vertex -39.4134 -4.6194 -2
    endloop
  endfacet
  facet normal -0.980785 -0.195091 0
    outer loop
      vertex -42.1194 -1.91342 -2
      vertex -42.5 0 2
      vertex -42.5 0 -2
    endloop
  endfacet
  facet normal -0.980785 -0.195091 0
    outer loop
      vertex -42.5 0 2
      vertex -42.1194 -1.91342 -2
      vertex -42.1194 -1.91342 2
    endloop
  endfacet
  facet normal -0.83147 -0.55557 0
    outer loop
      vertex -41.0355 -3.53553 -2
      vertex -42.1194 -1.91342 2
      vertex -42.1194 -1.91342 -2
    endloop
  endfacet
  facet normal -0.83147 -0.55557 0
    outer loop
      vertex -42.1194 -1.91342 2
      vertex -41.0355 -3.53553 -2
      vertex -41.0355 -3.53553 2
    endloop
  endfacet
  facet normal -0.980785 0.195091 0
    outer loop
      vertex -42.5 10 -2
      vertex -42.1194 11.9134 2
      vertex -42.1194 11.9134 -2
    endloop
  endfacet
  facet normal -0.980785 0.195091 0
    outer loop
      vertex -42.1194 11.9134 2
      vertex -42.5 10 -2
      vertex -42.5 10 2
    endloop
  endfacet
  facet normal -0.55557 0.83147 0
    outer loop
      vertex -39.4134 14.6194 -2
      vertex -41.0355 13.5355 2
      vertex -39.4134 14.6194 2
    endloop
  endfacet
  facet normal -0.55557 0.83147 0
    outer loop
      vertex -41.0355 13.5355 2
      vertex -39.4134 14.6194 -2
      vertex -41.0355 13.5355 -2
    endloop
  endfacet
  facet normal -0.83147 0.55557 0
    outer loop
      vertex -42.1194 11.9134 -2
      vertex -41.0355 13.5355 2
      vertex -41.0355 13.5355 -2
    endloop
  endfacet
  facet normal -0.83147 0.55557 0
    outer loop
      vertex -41.0355 13.5355 2
      vertex -42.1194 11.9134 -2
      vertex -42.1194 11.9134 2
    endloop
  endfacet
  facet normal -0.195091 0.980785 0
    outer loop
      vertex -37.5 15 -2
      vertex -39.4134 14.6194 2
      vertex -37.5 15 2
    endloop
  endfacet
  facet normal -0.195091 0.980785 0
    outer loop
      vertex -39.4134 14.6194 2
      vertex -37.5 15 -2
      vertex -39.4134 14.6194 -2
    endloop
  endfacet
  facet normal 0.195091 -0.980785 0
    outer loop
      vertex 37.5 -5 -2
      vertex 39.4134 -4.6194 2
      vertex 37.5 -5 2
    endloop
  endfacet
  facet normal 0.195091 -0.980785 0
    outer loop
      vertex 39.4134 -4.6194 2
      vertex 37.5 -5 -2
      vertex 39.4134 -4.6194 -2
    endloop
  endfacet
  facet normal 0.980785 -0.195091 0
    outer loop
      vertex 42.1194 -1.91342 2
      vertex 42.5 0 -2
      vertex 42.5 0 2
    endloop
  endfacet
  facet normal 0.980785 -0.195091 0
    outer loop
      vertex 42.5 0 -2
      vertex 42.1194 -1.91342 2
      vertex 42.1194 -1.91342 -2
    endloop
  endfacet
  facet normal 0.55557 -0.83147 0
    outer loop
      vertex 39.4134 -4.6194 -2
      vertex 41.0355 -3.53553 2
      vertex 39.4134 -4.6194 2
    endloop
  endfacet
  facet normal 0.55557 -0.83147 0
    outer loop
      vertex 41.0355 -3.53553 2
      vertex 39.4134 -4.6194 -2
      vertex 41.0355 -3.53553 -2
    endloop
  endfacet
  facet normal 0.83147 -0.55557 0
    outer loop
      vertex 41.0355 -3.53553 2
      vertex 42.1194 -1.91342 -2
      vertex 42.1194 -1.91342 2
    endloop
  endfacet
  facet normal 0.83147 -0.55557 0
    outer loop
      vertex 42.1194 -1.91342 -2
      vertex 41.0355 -3.53553 2
      vertex 41.0355 -3.53553 -2
    endloop
  endfacet
  facet normal 0.980785 0.195091 0
    outer loop
      vertex 42.5 10 2
      vertex 42.1194 11.9134 -2
      vertex 42.1194 11.9134 2
    endloop
  endfacet
  facet normal 0.980785 0.195091 0
    outer loop
      vertex 42.1194 11.9134 -2
      vertex 42.5 10 2
      vertex 42.5 10 -2
    endloop
  endfacet
  facet normal 0.55557 0.83147 -0
    outer loop
      vertex 41.0355 13.5355 -2
      vertex 39.4134 14.6194 2
      vertex 41.0355 13.5355 2
    endloop
  endfacet
  facet normal 0.55557 0.83147 0
    outer loop
      vertex 39.4134 14.6194 2
      vertex 41.0355 13.5355 -2
      vertex 39.4134 14.6194 -2
    endloop
  endfacet
  facet normal 0.83147 0.55557 0
    outer loop
      vertex 42.1194 11.9134 2
      vertex 41.0355 13.5355 -2
      vertex 41.0355 13.5355 2
    endloop
  endfacet
  facet normal 0.83147 0.55557 0
    outer loop
      vertex 41.0355 13.5355 -2
      vertex 42.1194 11.9134 2
      vertex 42.1194 11.9134 -2
    endloop
  endfacet
  facet normal 0.195091 0.980785 -0
    outer loop
      vertex 39.4134 14.6194 -2
      vertex 37.5 15 2
      vertex 39.4134 14.6194 2
    endloop
  endfacet
  facet normal 0.195091 0.980785 0
    outer loop
      vertex 37.5 15 2
      vertex 39.4134 14.6194 -2
      vertex 37.5 15 -2
    endloop
  endfacet
  facet normal 0 -1 0
    outer loop
      vertex 32.5 -5 -2
      vertex 37.5 -5 2
      vertex 32.5 -5 2
    endloop
  endfacet
  facet normal 0 -1 -0
    outer loop
      vertex 37.5 -5 2
      vertex 32.5 -5 -2
      vertex 37.5 -5 -2
    endloop
  endfacet
  facet normal 0 -1 0
    outer loop
      vertex -37.5 -5 -2
      vertex -32.5 -5 2
      vertex -37.5 -5 2
    endloop
  endfacet
  facet normal 0 -1 -0
    outer loop
      vertex -32.5 -5 2
      vertex -37.5 -5 -2
      vertex -32.5 -5 -2
    endloop
  endfacet
  facet normal 0 1 -0
    outer loop
      vertex 37.5 15 -2
      vertex -37.5 15 2
      vertex 37.5 15 2
    endloop
  endfacet
  facet normal 0 1 0
    outer loop
      vertex -37.5 15 2
      vertex 37.5 15 -2
      vertex -37.5 15 -2
    endloop
  endfacet
  facet normal -1 0 0
    outer loop
      vertex -42.5 0 -2
      vertex -42.5 10 2
      vertex -42.5 10 -2
    endloop
  endfacet
  facet normal -1 -0 0
    outer loop
      vertex -42.5 10 2
      vertex -42.5 0 -2
      vertex -42.5 0 2
    endloop
  endfacet
  facet normal 1 -0 0
    outer loop
      vertex 42.5 0 2
      vertex 42.5 10 -2
      vertex 42.5 10 2
    endloop
  endfacet
  facet normal 1 0 0
    outer loop
      vertex 42.5 10 -2
      vertex 42.5 0 2
      vertex 42.5 0 -2
    endloop
  endfacet
  facet normal -0.809016 -0.587786 0
    outer loop
      vertex -36.0099 0 -2
      vertex -37.0395 1.41717 0
      vertex -37.0395 1.41717 -2
    endloop
  endfacet
  facet normal -0.809016 -0.587786 0
    outer loop
      vertex -37.0395 1.41717 0
      vertex -36.0099 0 -2
      vertex -36.0099 0 0
    endloop
  endfacet
  facet normal 1 -0 0
    outer loop
      vertex -38.7055 -0.875858 0
      vertex -38.7055 0.875858 -2
      vertex -38.7055 0.875858 0
    endloop
  endfacet
  facet normal 1 0 0
    outer loop
      vertex -38.7055 0.875858 -2
      vertex -38.7055 -0.875858 0
      vertex -38.7055 -0.875858 -2
    endloop
  endfacet
  facet normal 0.309017 -0.951056 0
    outer loop
      vertex -38.7055 0.875858 -2
      vertex -37.0395 1.41717 0
      vertex -38.7055 0.875858 0
    endloop
  endfacet
  facet normal 0.309017 -0.951056 0
    outer loop
      vertex -37.0395 1.41717 0
      vertex -38.7055 0.875858 -2
      vertex -37.0395 1.41717 -2
    endloop
  endfacet
  facet normal 0.309017 0.951056 -0
    outer loop
      vertex -37.0395 -1.41717 -2
      vertex -38.7055 -0.875858 0
      vertex -37.0395 -1.41717 0
    endloop
  endfacet
  facet normal 0.309017 0.951056 0
    outer loop
      vertex -38.7055 -0.875858 0
      vertex -37.0395 -1.41717 -2
      vertex -38.7055 -0.875858 -2
    endloop
  endfacet
  facet normal -0.809016 0.587786 0
    outer loop
      vertex -37.0395 -1.41717 -2
      vertex -36.0099 0 0
      vertex -36.0099 0 -2
    endloop
  endfacet
  facet normal -0.809016 0.587786 0
    outer loop
      vertex -36.0099 0 0
      vertex -37.0395 -1.41717 -2
      vertex -37.0395 -1.41717 0
    endloop
  endfacet
  facet normal -0.866026 -0.5 0
    outer loop
      vertex -34.2999 0 0
      vertex -35.8999 2.77137 2
      vertex -35.8999 2.77137 0
    endloop
  endfacet
  facet normal -0.866026 -0.5 0
    outer loop
      vertex -35.8999 2.77137 2
      vertex -34.2999 0 0
      vertex -34.2999 0 2
    endloop
  endfacet
  facet normal 0.866026 -0.5 0
    outer loop
      vertex -40.7001 0 2
      vertex -39.1001 2.77137 0
      vertex -39.1001 2.77137 2
    endloop
  endfacet
  facet normal 0.866026 -0.5 0
    outer loop
      vertex -39.1001 2.77137 0
      vertex -40.7001 0 2
      vertex -40.7001 0 0
    endloop
  endfacet
  facet normal 0 -1 0
    outer loop
      vertex -39.1001 2.77137 0
      vertex -35.8999 2.77137 2
      vertex -39.1001 2.77137 2
    endloop
  endfacet
  facet normal 0 -1 -0
    outer loop
      vertex -35.8999 2.77137 2
      vertex -39.1001 2.77137 0
      vertex -35.8999 2.77137 0
    endloop
  endfacet
  facet normal 0.866026 0.5 0
    outer loop
      vertex -39.1001 -2.77137 2
      vertex -40.7001 0 0
      vertex -40.7001 0 2
    endloop
  endfacet
  facet normal 0.866026 0.5 0
    outer loop
      vertex -40.7001 0 0
      vertex -39.1001 -2.77137 2
      vertex -39.1001 -2.77137 0
    endloop
  endfacet
  facet normal 0 0 1
    outer loop
      vertex -36.0099 0 0
      vertex -34.2999 0 0
      vertex -35.8999 2.77137 0
    endloop
  endfacet
  facet normal 0 0 1
    outer loop
      vertex -34.2999 0 0
      vertex -36.0099 0 0
      vertex -35.8999 -2.77137 0
    endloop
  endfacet
  facet normal 0 0 1
    outer loop
      vertex -35.8999 2.77137 0
      vertex -37.0395 1.41717 0
      vertex -36.0099 0 0
    endloop
  endfacet
  facet normal -0 0 1
    outer loop
      vertex -39.1001 2.77137 0
      vertex -37.0395 1.41717 0
      vertex -35.8999 2.77137 0
    endloop
  endfacet
  facet normal 0 0 1
    outer loop
      vertex -40.7001 0 0
      vertex -38.7055 0.875858 0
      vertex -39.1001 2.77137 0
    endloop
  endfacet
  facet normal 0 0 1
    outer loop
      vertex -37.0395 1.41717 0
      vertex -39.1001 2.77137 0
      vertex -38.7055 0.875858 0
    endloop
  endfacet
  facet normal -0 0 1
    outer loop
      vertex -37.0395 -1.41717 0
      vertex -35.8999 -2.77137 0
      vertex -36.0099 0 0
    endloop
  endfacet
  facet normal 0 0 1
    outer loop
      vertex -39.1001 -2.77137 0
      vertex -37.0395 -1.41717 0
      vertex -38.7055 -0.875858 0
    endloop
  endfacet
  facet normal 0 0 1
    outer loop
      vertex -37.0395 -1.41717 0
      vertex -39.1001 -2.77137 0
      vertex -35.8999 -2.77137 0
    endloop
  endfacet
  facet normal 0 0 1
    outer loop
      vertex -38.7055 0.875858 0
      vertex -40.7001 0 0
      vertex -38.7055 -0.875858 0
    endloop
  endfacet
  facet normal 0 0 1
    outer loop
      vertex -38.7055 -0.875858 0
      vertex -40.7001 0 0
      vertex -39.1001 -2.77137 0
    endloop
  endfacet
  facet normal 0 1 -0
    outer loop
      vertex -35.8999 -2.77137 0
      vertex -39.1001 -2.77137 2
      vertex -35.8999 -2.77137 2
    endloop
  endfacet
  facet normal 0 1 0
    outer loop
      vertex -39.1001 -2.77137 2
      vertex -35.8999 -2.77137 0
      vertex -39.1001 -2.77137 0
    endloop
  endfacet
  facet normal -0.866026 0.5 0
    outer loop
      vertex -35.8999 -2.77137 0
      vertex -34.2999 0 2
      vertex -34.2999 0 0
    endloop
  endfacet
  facet normal -0.866026 0.5 0
    outer loop
      vertex -34.2999 0 2
      vertex -35.8999 -2.77137 0
      vertex -35.8999 -2.77137 2
    endloop
  endfacet
  facet normal -0.809016 -0.587786 0
    outer loop
      vertex 38.9901 0 -2
      vertex 37.9605 1.41717 0
      vertex 37.9605 1.41717 -2
    endloop
  endfacet
  facet normal -0.809016 -0.587786 0
    outer loop
      vertex 37.9605 1.41717 0
      vertex 38.9901 0 -2
      vertex 38.9901 0 0
    endloop
  endfacet
  facet normal 1 -0 0
    outer loop
      vertex 36.2945 -0.875858 0
      vertex 36.2945 0.875858 -2
      vertex 36.2945 0.875858 0
    endloop
  endfacet
  facet normal 1 0 0
    outer loop
      vertex 36.2945 0.875858 -2
      vertex 36.2945 -0.875858 0
      vertex 36.2945 -0.875858 -2
    endloop
  endfacet
  facet normal 0.309017 -0.951056 0
    outer loop
      vertex 36.2945 0.875858 -2
      vertex 37.9605 1.41717 0
      vertex 36.2945 0.875858 0
    endloop
  endfacet
  facet normal 0.309017 -0.951056 0
    outer loop
      vertex 37.9605 1.41717 0
      vertex 36.2945 0.875858 -2
      vertex 37.9605 1.41717 -2
    endloop
  endfacet
  facet normal 0.309017 0.951056 -0
    outer loop
      vertex 37.9605 -1.41717 -2
      vertex 36.2945 -0.875858 0
      vertex 37.9605 -1.41717 0
    endloop
  endfacet
  facet normal 0.309017 0.951056 0
    outer loop
      vertex 36.2945 -0.875858 0
      vertex 37.9605 -1.41717 -2
      vertex 36.2945 -0.875858 -2
    endloop
  endfacet
  facet normal -0.809016 0.587786 0
    outer loop
      vertex 37.9605 -1.41717 -2
      vertex 38.9901 0 0
      vertex 38.9901 0 -2
    endloop
  endfacet
  facet normal -0.809016 0.587786 0
    outer loop
      vertex 38.9901 0 0
      vertex 37.9605 -1.41717 -2
      vertex 37.9605 -1.41717 0
    endloop
  endfacet
  facet normal -0.866026 -0.5 0
    outer loop
      vertex 40.7001 0 0
      vertex 39.1001 2.77137 2
      vertex 39.1001 2.77137 0
    endloop
  endfacet
  facet normal -0.866026 -0.5 0
    outer loop
      vertex 39.1001 2.77137 2
      vertex 40.7001 0 0
      vertex 40.7001 0 2
    endloop
  endfacet
  facet normal 0.866026 -0.5 0
    outer loop
      vertex 34.2999 0 2
      vertex 35.8999 2.77137 0
      vertex 35.8999 2.77137 2
    endloop
  endfacet
  facet normal 0.866026 -0.5 0
    outer loop
      vertex 35.8999 2.77137 0
      vertex 34.2999 0 2
      vertex 34.2999 0 0
    endloop
  endfacet
  facet normal 0 -1 0
    outer loop
      vertex 35.8999 2.77137 0
      vertex 39.1001 2.77137 2
      vertex 35.8999 2.77137 2
    endloop
  endfacet
  facet normal 0 -1 -0
    outer loop
      vertex 39.1001 2.77137 2
      vertex 35.8999 2.77137 0
      vertex 39.1001 2.77137 0
    endloop
  endfacet
  facet normal 0.866026 0.5 0
    outer loop
      vertex 35.8999 -2.77137 2
      vertex 34.2999 0 0
      vertex 34.2999 0 2
    endloop
  endfacet
  facet normal 0.866026 0.5 0
    outer loop
      vertex 34.2999 0 0
      vertex 35.8999 -2.77137 2
      vertex 35.8999 -2.77137 0
    endloop
  endfacet
  facet normal -0.866026 0.5 0
    outer loop
      vertex 39.1001 -2.77137 0
      vertex 40.7001 0 2
      vertex 40.7001 0 0
    endloop
  endfacet
  facet normal -0.866026 0.5 0
    outer loop
      vertex 40.7001 0 2
      vertex 39.1001 -2.77137 0
      vertex 39.1001 -2.77137 2
    endloop
  endfacet
  facet normal 0 0 1
    outer loop
      vertex 38.9901 0 0
      vertex 40.7001 0 0
      vertex 39.1001 2.77137 0
    endloop
  endfacet
  facet normal 0 0 1
    outer loop
      vertex 40.7001 0 0
      vertex 38.9901 0 0
      vertex 39.1001 -2.77137 0
    endloop
  endfacet
  facet normal 0 0 1
    outer loop
      vertex 39.1001 2.77137 0
      vertex 37.9605 1.41717 0
      vertex 38.9901 0 0
    endloop
  endfacet
  facet normal -0 0 1
    outer loop
      vertex 35.8999 2.77137 0
      vertex 37.9605 1.41717 0
      vertex 39.1001 2.77137 0
    endloop
  endfacet
  facet normal 0 0 1
    outer loop
      vertex 34.2999 0 0
      vertex 36.2945 0.875858 0
      vertex 35.8999 2.77137 0
    endloop
  endfacet
  facet normal 0 0 1
    outer loop
      vertex 37.9605 1.41717 0
      vertex 35.8999 2.77137 0
      vertex 36.2945 0.875858 0
    endloop
  endfacet
  facet normal -0 0 1
    outer loop
      vertex 37.9605 -1.41717 0
      vertex 39.1001 -2.77137 0
      vertex 38.9901 0 0
    endloop
  endfacet
  facet normal 0 0 1
    outer loop
      vertex 35.8999 -2.77137 0
      vertex 37.9605 -1.41717 0
      vertex 36.2945 -0.875858 0
    endloop
  endfacet
  facet normal 0 0 1
    outer loop
      vertex 37.9605 -1.41717 0
      vertex 35.8999 -2.77137 0
      vertex 39.1001 -2.77137 0
    endloop
  endfacet
  facet normal 0 0 1
    outer loop
      vertex 36.2945 0.875858 0
      vertex 34.2999 0 0
      vertex 36.2945 -0.875858 0
    endloop
  endfacet
  facet normal 0 0 1
    outer loop
      vertex 36.2945 -0.875858 0
      vertex 34.2999 0 0
      vertex 35.8999 -2.77137 0
    endloop
  endfacet
  facet normal 0 1 -0
    outer loop
      vertex 39.1001 -2.77137 0
      vertex 35.8999 -2.77137 2
      vertex 39.1001 -2.77137 2
    endloop
  endfacet
  facet normal 0 1 0
    outer loop
      vertex 35.8999 -2.77137 2
      vertex 39.1001 -2.77137 0
      vertex 35.8999 -2.77137 0
    endloop
  endfacet
  facet normal 0.980785 -0.195091 0
    outer loop
      vertex -32.5 0 2
      vertex -32.1194 1.91342 -2
      vertex -32.1194 1.91342 2
    endloop
  endfacet
  facet normal 0.980785 -0.195091 0
    outer loop
      vertex -32.1194 1.91342 -2
      vertex -32.5 0 2
      vertex -32.5 0 -2
    endloop
  endfacet
  facet normal 0.55557 -0.83147 0
    outer loop
      vertex -31.0355 3.53553 -2
      vertex -29.4134 4.6194 2
      vertex -31.0355 3.53553 2
    endloop
  endfacet
  facet normal 0.55557 -0.83147 0
    outer loop
      vertex -29.4134 4.6194 2
      vertex -31.0355 3.53553 -2
      vertex -29.4134 4.6194 -2
    endloop
  endfacet
  facet normal 0.83147 -0.55557 0
    outer loop
      vertex -32.1194 1.91342 2
      vertex -31.0355 3.53553 -2
      vertex -31.0355 3.53553 2
    endloop
  endfacet
  facet normal 0.83147 -0.55557 0
    outer loop
      vertex -31.0355 3.53553 -2
      vertex -32.1194 1.91342 2
      vertex -32.1194 1.91342 -2
    endloop
  endfacet
  facet normal 0.195091 -0.980785 0
    outer loop
      vertex -29.4134 4.6194 -2
      vertex -27.5 5 2
      vertex -29.4134 4.6194 2
    endloop
  endfacet
  facet normal 0.195091 -0.980785 0
    outer loop
      vertex -27.5 5 2
      vertex -29.4134 4.6194 -2
      vertex -27.5 5 -2
    endloop
  endfacet
  facet normal -0.980785 -0.195091 0
    outer loop
      vertex 32.5 0 -2
      vertex 32.1194 1.91342 2
      vertex 32.1194 1.91342 -2
    endloop
  endfacet
  facet normal -0.980785 -0.195091 0
    outer loop
      vertex 32.1194 1.91342 2
      vertex 32.5 0 -2
      vertex 32.5 0 2
    endloop
  endfacet
  facet normal -0.55557 -0.83147 0
    outer loop
      vertex 29.4134 4.6194 -2
      vertex 31.0355 3.53553 2
      vertex 29.4134 4.6194 2
    endloop
  endfacet
  facet normal -0.55557 -0.83147 -0
    outer loop
      vertex 31.0355 3.53553 2
      vertex 29.4134 4.6194 -2
      vertex 31.0355 3.53553 -2
    endloop
  endfacet
  facet normal -0.83147 -0.55557 0
    outer loop
      vertex 32.1194 1.91342 -2
      vertex 31.0355 3.53553 2
      vertex 31.0355 3.53553 -2
    endloop
  endfacet
  facet normal -0.83147 -0.55557 0
    outer loop
      vertex 31.0355 3.53553 2
      vertex 32.1194 1.91342 -2
      vertex 32.1194 1.91342 2
    endloop
  endfacet
  facet normal -0.195091 -0.980785 0
    outer loop
      vertex 27.5 5 -2
      vertex 29.4134 4.6194 2
      vertex 27.5 5 2
    endloop
  endfacet
  facet normal -0.195091 -0.980785 -0
    outer loop
      vertex 29.4134 4.6194 2
      vertex 27.5 5 -2
      vertex 29.4134 4.6194 -2
    endloop
  endfacet
  facet normal 0 -1 0
    outer loop
      vertex -27.5 5 -2
      vertex 27.5 5 2
      vertex -27.5 5 2
    endloop
  endfacet
  facet normal 0 -1 -0
    outer loop
      vertex 27.5 5 2
      vertex -27.5 5 -2
      vertex 27.5 5 -2
    endloop
  endfacet
  facet normal 1 -0 0
    outer loop
      vertex -32.5 -5 2
      vertex -32.5 0 -2
      vertex -32.5 0 2
    endloop
  endfacet
  facet normal 1 0 0
    outer loop
      vertex -32.5 0 -2
      vertex -32.5 -5 2
      vertex -32.5 -5 -2
    endloop
  endfacet
  facet normal -1 0 0
    outer loop
      vertex 32.5 -5 -2
      vertex 32.5 0 2
      vertex 32.5 0 -2
    endloop
  endfacet
  facet normal -1 -0 0
    outer loop
      vertex 32.5 0 2
      vertex 32.5 -5 -2
      vertex 32.5 -5 2
    endloop
  endfacet
endsolid OpenSCAD_Model
